# This file uses centimeters as units for non-parametric coordinates.

v 0.022584 1.623631 -0.017178
v 0.049916 1.623631 -0.017178
v 0.022584 1.623631 -0.044147
v 0.049916 1.623631 -0.044147
v 0.022584 1.537257 -0.044147
v 0.049916 1.537257 -0.044147
v 0.022584 1.537257 -0.017178
v 0.049916 1.537257 -0.017178
v 0.022584 1.623631 0.045125
v 0.049916 1.623631 0.045125
v 0.022584 1.623631 0.018155
v 0.049916 1.623631 0.018155
v 0.022584 1.537257 0.018155
v 0.049916 1.537257 0.018155
v 0.022584 1.537257 0.045125
v 0.049916 1.537257 0.045125
v -0.510625 1.144168 0.449341
v 0.010625 1.144168 0.449341
v -0.510625 1.996070 0.449341
v 0.010625 1.996070 0.449341
v -0.510625 1.996070 -0.449341
v 0.010625 1.996070 -0.449341
v -0.510625 1.144168 -0.449341
v 0.010625 1.144168 -0.449341
v 0.010625 1.996070 0.000000
v 0.010625 1.144168 0.000000
v 0.010625 1.959069 0.000000
v 0.010625 1.181168 0.000000
v 0.010625 1.181168 -0.412341
v 0.010625 1.959069 -0.412341
v 0.010625 1.181168 0.412341
v 0.010625 1.959069 0.412341
v 0.032456 1.959069 0.000000
v 0.032456 1.181168 0.000000
v 0.032456 1.181168 -0.412341
v 0.032456 1.959069 -0.412341
v 0.032456 1.181168 0.412341
v 0.032456 1.959069 0.412341
vt 0.399418 0.714609
vt 0.399418 0.681454
vt 0.409770 0.681454
vt 0.409770 0.714609
vt 0.448859 0.714608
vt 0.448859 0.681454
vt 0.459212 0.681454
vt 0.459212 0.714608
vt 0.300469 0.839731
vt 0.001872 0.839731
vt 0.001872 0.681454
vt 0.300469 0.681454
vt 0.001872 0.998008
vt 0.300469 0.998008
vt 0.415898 0.346951
vt 0.415898 0.001992
vt 0.742901 0.001992
vt 0.742901 0.346951
vt 0.610691 0.523181
vt 0.610691 0.350701
vt 0.624893 0.364904
vt 0.624893 0.523181
vt 0.937693 0.350701
vt 0.923491 0.364904
vt 0.610691 0.695660
vt 0.624893 0.681458
vt 0.937693 0.523181
vt 0.923491 0.523181
vt 0.937693 0.695660
vt 0.923491 0.681458
vt 0.465340 0.691945
vt 0.465340 0.681454
vt 0.475692 0.681454
vt 0.475692 0.691945
vt 0.481820 0.691945
vt 0.481820 0.681454
vt 0.492173 0.681454
vt 0.492173 0.691945
vt 0.498301 0.691945
vt 0.498301 0.681454
vt 0.508653 0.681454
vt 0.508653 0.691945
vt 0.514781 0.691945
vt 0.514781 0.681454
vt 0.525134 0.681454
vt 0.525134 0.691945
vt 0.001872 0.001992
vt 0.201954 0.001992
vt 0.201954 0.174472
vt 0.201954 0.346951
vt 0.001872 0.346951
vt 0.208977 0.001992
vt 0.409059 0.001992
vt 0.409059 0.174472
vt 0.409059 0.346951
vt 0.208977 0.346951
vt 0.307860 0.839731
vt 0.307860 0.681454
vt 0.316239 0.681454
vt 0.316239 0.839731
vt 0.307860 0.998008
vt 0.316239 0.998008
vt 0.322509 0.998008
vt 0.322509 0.839731
vt 0.330889 0.839731
vt 0.330889 0.998008
vt 0.322509 0.681454
vt 0.330889 0.681454
vt 0.366457 0.681454
vt 0.376948 0.681454
vt 0.376948 0.714609
vt 0.366457 0.714609
vt 0.382937 0.681454
vt 0.393429 0.681454
vt 0.393429 0.714609
vt 0.382937 0.714609
vt 0.415898 0.681454
vt 0.426390 0.681454
vt 0.426390 0.714609
vt 0.415898 0.714609
vt 0.432379 0.681454
vt 0.442870 0.681454
vt 0.442870 0.714608
vt 0.432379 0.714608
vt 0.404844 0.350701
vt 0.604926 0.350701
vt 0.604926 0.677704
vt 0.404844 0.677704
vt 0.198998 0.350701
vt 0.399080 0.350701
vt 0.399080 0.677704
vt 0.198998 0.677704
vt 0.337158 0.980051
vt 0.337158 0.681454
vt 0.345538 0.681454
vt 0.345538 0.980051
vt 0.351808 0.980051
vt 0.351808 0.681454
vt 0.360187 0.681454
vt 0.360187 0.980051
vn 0.000000 1.000000 0.000000
vn 0.000000 1.000000 0.000000
vn 0.000000 1.000000 0.000000
vn 0.000000 1.000000 0.000000
vn 0.000000 0.000000 -1.000000
vn 0.000000 0.000000 -1.000000
vn 0.000000 0.000000 -1.000000
vn 0.000000 0.000000 -1.000000
vn 0.000000 -1.000000 0.000000
vn 0.000000 -1.000000 0.000000
vn 0.000000 -1.000000 0.000000
vn 0.000000 -1.000000 0.000000
vn 0.000000 0.000000 1.000000
vn 0.000000 0.000000 1.000000
vn 0.000000 0.000000 1.000000
vn 0.000000 0.000000 1.000000
vn 1.000000 0.000000 0.000000
vn 1.000000 0.000000 0.000000
vn 1.000000 0.000000 0.000000
vn 1.000000 0.000000 0.000000
vn 0.000000 1.000000 0.000000
vn 0.000000 1.000000 0.000000
vn 0.000000 1.000000 0.000000
vn 0.000000 1.000000 0.000000
vn 0.000000 0.000000 -1.000000
vn 0.000000 0.000000 -1.000000
vn 0.000000 0.000000 -1.000000
vn 0.000000 0.000000 -1.000000
vn 0.000000 -1.000000 0.000000
vn 0.000000 -1.000000 0.000000
vn 0.000000 -1.000000 0.000000
vn 0.000000 -1.000000 0.000000
vn 0.000000 0.000000 1.000000
vn 0.000000 0.000000 1.000000
vn 0.000000 0.000000 1.000000
vn 0.000000 0.000000 1.000000
vn 1.000000 0.000000 0.000000
vn 1.000000 0.000000 0.000000
vn 1.000000 0.000000 0.000000
vn 1.000000 0.000000 0.000000
vn 0.000000 0.000000 1.000000
vn 0.000000 0.000000 1.000000
vn 0.000000 0.000000 1.000000
vn 0.000000 0.000000 1.000000
vn 0.000000 1.000000 0.000000
vn 0.000000 1.000000 0.000000
vn 0.000000 1.000000 0.000000
vn 0.000000 1.000000 0.000000
vn 0.000000 1.000000 0.000000
vn 0.000000 0.000000 -1.000000
vn 0.000000 0.000000 -1.000000
vn 0.000000 0.000000 -1.000000
vn 0.000000 0.000000 -1.000000
vn 0.000000 -1.000000 0.000000
vn 0.000000 -1.000000 0.000000
vn 0.000000 -1.000000 0.000000
vn 0.000000 -1.000000 0.000000
vn 0.000000 -1.000000 0.000000
vn 1.000000 0.000000 0.000000
vn 1.000000 0.000000 0.000000
vn 1.000000 0.000000 0.000000
vn 1.000000 0.000000 0.000000
vn -1.000000 0.000000 0.000000
vn -1.000000 0.000000 0.000000
vn -1.000000 0.000000 0.000000
vn -1.000000 0.000000 0.000000
vn 1.000000 0.000000 0.000000
vn 1.000000 0.000000 0.000000
vn 1.000000 0.000000 0.000000
vn 1.000000 0.000000 0.000000
vn 1.000000 0.000000 0.000000
vn 1.000000 0.000000 0.000000
vn 1.000000 -0.000000 0.000000
vn 1.000000 -0.000000 0.000000
vn 1.000000 -0.000000 0.000000
vn 1.000000 -0.000000 0.000000
vn 1.000000 -0.000000 0.000000
vn 1.000000 -0.000000 0.000000
vn 1.000000 0.000000 0.000000
vn 1.000000 0.000000 0.000000
vn 0.000000 -1.000000 0.000000
vn 0.000000 -1.000000 0.000000
vn 0.000000 -1.000000 0.000000
vn 0.000000 -1.000000 0.000000
vn 0.000000 0.000000 -1.000000
vn 0.000000 0.000000 -1.000000
vn 0.000000 0.000000 -1.000000
vn 0.000000 0.000000 -1.000000
vn 0.000000 1.000000 0.000000
vn 0.000000 1.000000 0.000000
vn 0.000000 1.000000 0.000000
vn 0.000000 1.000000 0.000000
vn 0.000000 -1.000000 0.000000
vn 0.000000 -1.000000 0.000000
vn 0.000000 -1.000000 0.000000
vn 0.000000 -1.000000 0.000000
vn 0.000000 1.000000 0.000000
vn 0.000000 1.000000 0.000000
vn 0.000000 1.000000 0.000000
vn 0.000000 1.000000 0.000000
vn 0.000000 0.000000 1.000000
vn 0.000000 0.000000 1.000000
vn 0.000000 0.000000 1.000000
vn 0.000000 0.000000 1.000000
f 1/31/1 2/32/2 4/33/3 3/34/4
f 3/69/5 4/70/6 6/71/7 5/72/8
f 5/35/9 6/36/10 8/37/11 7/38/12
f 7/73/13 8/74/14 2/75/15 1/76/16
f 2/1/17 8/2/18 6/3/19 4/4/20
f 9/39/21 10/40/22 12/41/23 11/42/24
f 11/77/25 12/78/26 14/79/27 13/80/28
f 13/43/29 14/44/30 16/45/31 15/46/32
f 15/81/33 16/82/34 10/83/35 9/84/36
f 10/5/37 16/6/38 14/7/39 12/8/40
f 17/85/41 18/86/42 20/87/43 19/88/44
f 19/47/45 20/48/46 25/49/47 22/50/48 21/51/49
f 21/89/50 22/90/51 24/91/52 23/92/53
f 23/52/54 24/53/55 26/54/56 18/55/57 17/56/58
f 33/9/59 34/10/60 35/11/61 36/12/62
f 23/15/63 17/16/64 19/17/65 21/18/66
f 37/13/67 34/10/60 33/9/59 38/14/68
f 26/19/69 24/20/70 29/21/71 28/22/72
f 24/20/70 22/23/73 30/24/74 29/21/71
f 22/23/73 25/27/75 27/28/76 30/24/74
f 18/25/77 26/19/69 28/22/72 31/26/78
f 25/27/75 20/29/79 32/30/80 27/28/76
f 20/29/79 18/25/77 31/26/78 32/30/80
f 28/57/81 29/58/82 35/59/83 34/60/84
f 29/93/85 30/94/86 36/95/87 35/96/88
f 30/63/89 27/64/90 33/65/91 36/66/92
f 31/61/93 28/57/94 34/60/95 37/62/96
f 27/64/97 32/67/98 38/68/99 33/65/100
f 32/97/101 31/98/102 37/99/103 38/100/104
