# This file uses centimeters as units for non-parametric coordinates.

v 0.961088 0.000000 0.053860
v 0.906847 0.000000 0.071484
v 0.906847 0.000000 0.128516
v 0.961088 0.000000 0.146140
v 0.994611 0.000000 0.100000
v 0.961088 1.818982 0.053860
v 0.906847 1.818982 0.071484
v 0.906847 1.818982 0.128516
v 0.961088 1.818982 0.146140
v 0.994611 1.818982 0.100000
v 0.946096 0.000000 0.100000
v 0.946096 1.818982 0.100000
v 0.961088 0.000000 -0.546140
v 0.906847 0.000000 -0.528516
v 0.906847 0.000000 -0.471484
v 0.961088 0.000000 -0.453860
v 0.994611 0.000000 -0.500000
v 0.961088 1.818982 -0.546140
v 0.906847 1.818982 -0.528516
v 0.906847 1.818982 -0.471484
v 0.961088 1.818982 -0.453860
v 0.994611 1.818982 -0.500000
v 0.946096 0.000000 -0.500000
v 0.946096 1.818982 -0.500000
v -0.937324 0.000000 -0.546140
v -0.991565 0.000000 -0.528516
v -0.991565 0.000000 -0.471484
v -0.937324 0.000000 -0.453860
v -0.903801 0.000000 -0.500000
v -0.937324 1.818982 -0.546140
v -0.991565 1.818982 -0.528516
v -0.991565 1.818982 -0.471484
v -0.937324 1.818982 -0.453860
v -0.903801 1.818982 -0.500000
v -0.952315 0.000000 -0.500000
v -0.952315 1.818982 -0.500000
v -0.963015 1.475228 0.078122
v 0.963015 1.475228 0.078122
v -0.963015 1.524772 0.078122
v 0.963015 1.524772 0.078122
v -0.963015 1.524772 -0.478122
v 0.963015 1.524772 -0.478122
v -0.963015 1.475228 -0.478122
v 0.963015 1.475228 -0.478122
v -0.963015 0.275228 0.078122
v 0.963015 0.275228 0.078122
v -0.963015 0.324772 0.078122
v 0.963015 0.324772 0.078122
v -0.963015 0.324772 -0.478122
v 0.963015 0.324772 -0.478122
v -0.963015 0.275228 -0.478122
v 0.963015 0.275228 -0.478122
v -0.963015 0.875228 0.078122
v 0.963015 0.875228 0.078122
v -0.963015 0.924772 0.078122
v 0.963015 0.924772 0.078122
v -0.963015 0.924772 -0.478122
v 0.963015 0.924772 -0.478122
v -0.963015 0.875228 -0.478122
v 0.963015 0.875228 -0.478122
v -0.937324 0.000000 0.053860
v -0.991565 0.000000 0.071484
v -0.991565 0.000000 0.128516
v -0.937324 0.000000 0.146140
v -0.903801 0.000000 0.100000
v -0.937324 1.818982 0.053860
v -0.991565 1.818982 0.071484
v -0.991565 1.818982 0.128516
v -0.937324 1.818982 0.146140
v -0.903801 1.818982 0.100000
v -0.952315 0.000000 0.100000
v -0.952315 1.818982 0.100000
vt 0.743924 0.501872
vt 0.758616 0.501872
vt 0.758616 0.970433
vt 0.743924 0.970433
vt 0.666756 0.501872
vt 0.681447 0.501872
vt 0.681447 0.970433
vt 0.666756 0.970433
vt 0.589587 0.501872
vt 0.604278 0.501872
vt 0.604278 0.970433
vt 0.589587 0.970433
vt 0.465539 0.645158
vt 0.465539 0.501872
vt 0.478302 0.501872
vt 0.478302 0.645158
vt 0.447023 0.645158
vt 0.447023 0.501872
vt 0.459785 0.501872
vt 0.459785 0.645158
vt 0.428506 0.645158
vt 0.428506 0.501872
vt 0.441269 0.501872
vt 0.441269 0.645158
vt 0.409990 0.645158
vt 0.409990 0.501872
vt 0.422752 0.501872
vt 0.422752 0.645158
vt 0.391473 0.645158
vt 0.391473 0.501872
vt 0.404235 0.501872
vt 0.404235 0.645158
vt 0.372956 0.645158
vt 0.372956 0.501872
vt 0.385719 0.501872
vt 0.385719 0.645158
vt 0.512418 0.501872
vt 0.527109 0.501872
vt 0.527109 0.970433
vt 0.512418 0.970433
vt 0.344595 0.506412
vt 0.358567 0.501872
vt 0.354705 0.513757
vt 0.367202 0.513757
vt 0.344595 0.521103
vt 0.358567 0.525643
vt 0.330205 0.525643
vt 0.316233 0.521103
vt 0.326343 0.513757
vt 0.316233 0.506412
vt 0.338841 0.513757
vt 0.330205 0.501872
vt 0.287871 0.506412
vt 0.301844 0.501872
vt 0.297982 0.513757
vt 0.310479 0.513757
vt 0.287871 0.521103
vt 0.301844 0.525643
vt 0.273482 0.525643
vt 0.259510 0.521103
vt 0.269620 0.513757
vt 0.259510 0.506412
vt 0.282117 0.513757
vt 0.273482 0.501872
vt 0.231148 0.506412
vt 0.245120 0.501872
vt 0.241258 0.513757
vt 0.253755 0.513757
vt 0.231148 0.521103
vt 0.245120 0.525643
vt 0.216758 0.525643
vt 0.202786 0.521103
vt 0.212896 0.513757
vt 0.202786 0.506412
vt 0.225394 0.513757
vt 0.216758 0.501872
vt 0.022158 0.498128
vt 0.022158 0.001992
vt 0.165444 0.001992
vt 0.165444 0.498128
vt 0.192152 0.498128
vt 0.192152 0.001992
vt 0.335438 0.001992
vt 0.335438 0.498128
vt 0.362146 0.498128
vt 0.362146 0.001992
vt 0.505433 0.001992
vt 0.505433 0.498128
vt 0.532141 0.498128
vt 0.532141 0.001992
vt 0.675427 0.001992
vt 0.675427 0.498128
vt 0.702135 0.498128
vt 0.702135 0.001992
vt 0.845421 0.001992
vt 0.845421 0.498128
vt 0.792732 0.998008
vt 0.792732 0.501872
vt 0.936018 0.501872
vt 0.936018 0.998008
vt 0.174424 0.506412
vt 0.188397 0.501872
vt 0.184535 0.513757
vt 0.197032 0.513757
vt 0.174424 0.521103
vt 0.188397 0.525643
vt 0.160035 0.525643
vt 0.146063 0.521103
vt 0.156173 0.513757
vt 0.146063 0.506412
vt 0.168670 0.513757
vt 0.160035 0.501872
vt 0.778342 0.970433
vt 0.764370 0.970433
vt 0.764370 0.501872
vt 0.778342 0.501872
vt 0.786977 0.970433
vt 0.786977 0.501872
vt 0.715563 0.501872
vt 0.729535 0.501872
vt 0.729535 0.970433
vt 0.715563 0.970433
vt 0.738170 0.501872
vt 0.738170 0.970433
vt 0.701173 0.970433
vt 0.687201 0.970433
vt 0.687201 0.501872
vt 0.701173 0.501872
vt 0.709809 0.970433
vt 0.709809 0.501872
vt 0.638394 0.501872
vt 0.652366 0.501872
vt 0.652366 0.970433
vt 0.638394 0.970433
vt 0.661001 0.501872
vt 0.661001 0.970433
vt 0.624004 0.970433
vt 0.610032 0.970433
vt 0.610032 0.501872
vt 0.624004 0.501872
vt 0.632640 0.970433
vt 0.632640 0.501872
vt 0.561225 0.501872
vt 0.575197 0.501872
vt 0.575197 0.970433
vt 0.561225 0.970433
vt 0.583833 0.501872
vt 0.583833 0.970433
vt 0.001868 0.498128
vt 0.001868 0.001992
vt 0.014631 0.001992
vt 0.014631 0.498128
vt 0.172045 0.498128
vt 0.172045 0.001992
vt 0.184808 0.001992
vt 0.184808 0.498128
vt 0.342040 0.498128
vt 0.342040 0.001992
vt 0.354802 0.001992
vt 0.354802 0.498128
vt 0.512034 0.498128
vt 0.512034 0.001992
vt 0.524796 0.001992
vt 0.524796 0.498128
vt 0.682028 0.498128
vt 0.682028 0.001992
vt 0.694790 0.001992
vt 0.694790 0.498128
vt 0.852022 0.498128
vt 0.852022 0.001992
vt 0.864785 0.001992
vt 0.864785 0.498128
vt 0.546835 0.970433
vt 0.532863 0.970433
vt 0.532863 0.501872
vt 0.546835 0.501872
vt 0.555471 0.970433
vt 0.555471 0.501872
vt 0.484056 0.501872
vt 0.498028 0.501872
vt 0.498028 0.970433
vt 0.484056 0.970433
vt 0.506664 0.501872
vt 0.506664 0.970433
vn -0.309017 0.000000 -0.951056
vn -0.309017 0.000000 -0.951056
vn -0.309017 0.000000 -0.951056
vn -0.309017 0.000000 -0.951056
vn -1.000000 0.000000 0.000000
vn -1.000000 0.000000 0.000000
vn -1.000000 0.000000 0.000000
vn -1.000000 0.000000 0.000000
vn -0.309017 0.000000 0.951057
vn -0.309017 0.000000 0.951057
vn -0.309017 0.000000 0.951057
vn -0.309017 0.000000 0.951057
vn 0.809017 0.000000 0.587785
vn 0.809017 0.000000 0.587785
vn 0.809017 0.000000 0.587785
vn 0.809017 0.000000 0.587785
vn 0.809017 0.000000 -0.587785
vn 0.809017 0.000000 -0.587785
vn 0.809017 0.000000 -0.587785
vn 0.809017 0.000000 -0.587785
vn 0.000000 -1.000000 0.000000
vn 0.000000 -1.000000 0.000000
vn 0.000000 -1.000000 0.000000
vn 0.000000 -1.000000 0.000000
vn 0.000000 -1.000000 0.000000
vn 0.000000 -1.000000 0.000000
vn 0.000000 1.000000 0.000001
vn 0.000000 1.000000 0.000001
vn 0.000000 1.000000 0.000000
vn 0.000000 1.000000 0.000000
vn 0.000000 1.000000 -0.000001
vn 0.000000 1.000000 -0.000001
vn -0.309017 0.000000 -0.951057
vn -0.309017 0.000000 -0.951057
vn -0.309017 0.000000 -0.951057
vn -0.309017 0.000000 -0.951057
vn -1.000000 0.000000 0.000000
vn -1.000000 0.000000 0.000000
vn -1.000000 0.000000 0.000000
vn -1.000000 0.000000 0.000000
vn -0.309017 0.000000 0.951056
vn -0.309017 0.000000 0.951056
vn -0.309017 0.000000 0.951056
vn -0.309017 0.000000 0.951056
vn 0.809017 0.000000 0.587785
vn 0.809017 0.000000 0.587785
vn 0.809017 0.000000 0.587785
vn 0.809017 0.000000 0.587785
vn 0.809017 0.000000 -0.587785
vn 0.809017 0.000000 -0.587785
vn 0.809017 0.000000 -0.587785
vn 0.809017 0.000000 -0.587785
vn 0.000000 -1.000000 0.000000
vn 0.000000 -1.000000 0.000000
vn 0.000000 -1.000000 0.000000
vn 0.000000 -1.000000 0.000000
vn 0.000000 -1.000000 0.000000
vn 0.000000 -1.000000 0.000000
vn 0.000000 1.000000 0.000001
vn 0.000000 1.000000 0.000001
vn 0.000000 1.000000 0.000000
vn 0.000000 1.000000 0.000000
vn 0.000000 1.000000 -0.000001
vn 0.000000 1.000000 -0.000001
vn -0.309017 0.000000 -0.951057
vn -0.309017 0.000000 -0.951057
vn -0.309017 0.000000 -0.951057
vn -0.309017 0.000000 -0.951057
vn -1.000000 0.000000 0.000000
vn -1.000000 0.000000 0.000000
vn -1.000000 0.000000 0.000000
vn -1.000000 0.000000 0.000000
vn -0.309017 0.000000 0.951056
vn -0.309017 0.000000 0.951056
vn -0.309017 0.000000 0.951056
vn -0.309017 0.000000 0.951056
vn 0.809017 0.000000 0.587785
vn 0.809017 0.000000 0.587785
vn 0.809017 0.000000 0.587785
vn 0.809017 0.000000 0.587785
vn 0.809017 0.000000 -0.587785
vn 0.809017 0.000000 -0.587785
vn 0.809017 0.000000 -0.587785
vn 0.809017 0.000000 -0.587785
vn 0.000000 -1.000000 0.000000
vn 0.000000 -1.000000 0.000000
vn 0.000000 -1.000000 0.000000
vn 0.000000 -1.000000 0.000000
vn 0.000000 -1.000000 0.000000
vn 0.000000 -1.000000 0.000000
vn 0.000000 1.000000 0.000001
vn 0.000000 1.000000 0.000001
vn 0.000000 1.000000 -0.000000
vn 0.000000 1.000000 0.000000
vn 0.000000 1.000000 -0.000001
vn 0.000000 1.000000 -0.000001
vn 0.000000 0.000000 1.000000
vn 0.000000 0.000000 1.000000
vn 0.000000 0.000000 1.000000
vn 0.000000 0.000000 1.000000
vn 0.000000 1.000000 0.000000
vn 0.000000 1.000000 0.000000
vn 0.000000 1.000000 0.000000
vn 0.000000 1.000000 0.000000
vn 0.000000 0.000000 -1.000000
vn 0.000000 0.000000 -1.000000
vn 0.000000 0.000000 -1.000000
vn 0.000000 0.000000 -1.000000
vn 0.000000 -1.000000 0.000000
vn 0.000000 -1.000000 0.000000
vn 0.000000 -1.000000 0.000000
vn 0.000000 -1.000000 0.000000
vn 1.000000 0.000000 0.000000
vn 1.000000 0.000000 0.000000
vn 1.000000 0.000000 0.000000
vn 1.000000 0.000000 0.000000
vn -1.000000 0.000000 0.000000
vn -1.000000 0.000000 0.000000
vn -1.000000 0.000000 0.000000
vn -1.000000 0.000000 0.000000
vn 0.000000 0.000000 1.000000
vn 0.000000 0.000000 1.000000
vn 0.000000 0.000000 1.000000
vn 0.000000 0.000000 1.000000
vn 0.000000 1.000000 0.000000
vn 0.000000 1.000000 0.000000
vn 0.000000 1.000000 0.000000
vn 0.000000 1.000000 0.000000
vn 0.000000 0.000000 -1.000000
vn 0.000000 0.000000 -1.000000
vn 0.000000 0.000000 -1.000000
vn 0.000000 0.000000 -1.000000
vn 0.000000 -1.000000 0.000000
vn 0.000000 -1.000000 0.000000
vn 0.000000 -1.000000 0.000000
vn 0.000000 -1.000000 0.000000
vn 1.000000 0.000000 0.000000
vn 1.000000 0.000000 0.000000
vn 1.000000 0.000000 0.000000
vn 1.000000 0.000000 0.000000
vn -1.000000 0.000000 0.000000
vn -1.000000 0.000000 0.000000
vn -1.000000 0.000000 0.000000
vn -1.000000 0.000000 0.000000
vn 0.000000 0.000000 1.000000
vn 0.000000 0.000000 1.000000
vn 0.000000 0.000000 1.000000
vn 0.000000 0.000000 1.000000
vn 0.000000 1.000000 0.000000
vn 0.000000 1.000000 0.000000
vn 0.000000 1.000000 0.000000
vn 0.000000 1.000000 0.000000
vn 0.000000 0.000000 -1.000000
vn 0.000000 0.000000 -1.000000
vn 0.000000 0.000000 -1.000000
vn 0.000000 0.000000 -1.000000
vn 0.000000 -1.000000 0.000000
vn 0.000000 -1.000000 0.000000
vn 0.000000 -1.000000 0.000000
vn 0.000000 -1.000000 0.000000
vn 1.000000 0.000000 0.000000
vn 1.000000 0.000000 0.000000
vn 1.000000 0.000000 0.000000
vn 1.000000 0.000000 0.000000
vn -1.000000 0.000000 0.000000
vn -1.000000 0.000000 0.000000
vn -1.000000 0.000000 0.000000
vn -1.000000 0.000000 0.000000
vn -0.309017 0.000000 -0.951056
vn -0.309017 0.000000 -0.951056
vn -0.309017 0.000000 -0.951056
vn -0.309017 0.000000 -0.951056
vn -1.000000 0.000000 0.000000
vn -1.000000 0.000000 0.000000
vn -1.000000 0.000000 0.000000
vn -1.000000 0.000000 0.000000
vn -0.309017 0.000000 0.951057
vn -0.309017 0.000000 0.951057
vn -0.309017 0.000000 0.951057
vn -0.309017 0.000000 0.951057
vn 0.809017 0.000000 0.587785
vn 0.809017 0.000000 0.587785
vn 0.809017 0.000000 0.587785
vn 0.809017 0.000000 0.587785
vn 0.809017 0.000000 -0.587785
vn 0.809017 0.000000 -0.587785
vn 0.809017 0.000000 -0.587785
vn 0.809017 0.000000 -0.587785
vn 0.000000 -1.000000 0.000000
vn 0.000000 -1.000000 0.000000
vn 0.000000 -1.000000 0.000000
vn 0.000000 -1.000000 0.000000
vn 0.000000 -1.000000 0.000000
vn 0.000000 -1.000000 0.000000
vn 0.000000 1.000000 0.000001
vn 0.000000 1.000000 0.000001
vn 0.000000 1.000000 -0.000000
vn 0.000000 1.000000 0.000000
vn 0.000000 1.000000 -0.000001
vn 0.000000 1.000000 -0.000001
f 1/113/1 2/114/2 7/115/3 6/116/4
f 2/1/5 3/2/6 8/3/7 7/4/8
f 3/119/9 4/120/10 9/121/11 8/122/12
f 4/120/13 5/123/14 10/124/15 9/121/16
f 5/117/17 1/113/18 6/116/19 10/118/20
f 2/41/21 1/42/22 11/43/23
f 3/45/24 2/41/21 11/43/23
f 4/46/25 3/45/24 11/43/23
f 5/44/26 4/46/25 11/43/23
f 1/42/22 5/44/26 11/43/23
f 6/47/27 7/48/28 12/49/29
f 7/48/28 8/50/30 12/49/29
f 8/50/30 9/52/31 12/49/29
f 9/52/31 10/51/32 12/49/29
f 10/51/32 6/47/27 12/49/29
f 13/125/33 14/126/34 19/127/35 18/128/36
f 14/5/37 15/6/38 20/7/39 19/8/40
f 15/131/41 16/132/42 21/133/43 20/134/44
f 16/132/45 17/135/46 22/136/47 21/133/48
f 17/129/49 13/125/50 18/128/51 22/130/52
f 14/53/53 13/54/54 23/55/55
f 15/57/56 14/53/53 23/55/55
f 16/58/57 15/57/56 23/55/55
f 17/56/58 16/58/57 23/55/55
f 13/54/54 17/56/58 23/55/55
f 18/59/59 19/60/60 24/61/61
f 19/60/60 20/62/62 24/61/61
f 20/62/62 21/64/63 24/61/61
f 21/64/63 22/63/64 24/61/61
f 22/63/64 18/59/59 24/61/61
f 25/137/65 26/138/66 31/139/67 30/140/68
f 26/9/69 27/10/70 32/11/71 31/12/72
f 27/143/73 28/144/74 33/145/75 32/146/76
f 28/144/77 29/147/78 34/148/79 33/145/80
f 29/141/81 25/137/82 30/140/83 34/142/84
f 26/65/85 25/66/86 35/67/87
f 27/69/88 26/65/85 35/67/87
f 28/70/89 27/69/88 35/67/87
f 29/68/90 28/70/89 35/67/87
f 25/66/86 29/68/90 35/67/87
f 30/71/91 31/72/92 36/73/93
f 31/72/92 32/74/94 36/73/93
f 32/74/94 33/76/95 36/73/93
f 33/76/95 34/75/96 36/73/93
f 34/75/96 30/71/91 36/73/93
f 37/149/97 38/150/98 40/151/99 39/152/100
f 39/77/101 40/78/102 42/79/103 41/80/104
f 41/153/105 42/154/106 44/155/107 43/156/108
f 43/81/109 44/82/110 38/83/111 37/84/112
f 38/13/113 44/14/114 42/15/115 40/16/116
f 43/17/117 37/18/118 39/19/119 41/20/120
f 45/157/121 46/158/122 48/159/123 47/160/124
f 47/85/125 48/86/126 50/87/127 49/88/128
f 49/161/129 50/162/130 52/163/131 51/164/132
f 51/89/133 52/90/134 46/91/135 45/92/136
f 46/21/137 52/22/138 50/23/139 48/24/140
f 51/25/141 45/26/142 47/27/143 49/28/144
f 53/165/145 54/166/146 56/167/147 55/168/148
f 55/93/149 56/94/150 58/95/151 57/96/152
f 57/169/153 58/170/154 60/171/155 59/172/156
f 59/97/157 60/98/158 54/99/159 53/100/160
f 54/29/161 60/30/162 58/31/163 56/32/164
f 59/33/165 53/34/166 55/35/167 57/36/168
f 61/173/169 62/174/170 67/175/171 66/176/172
f 62/37/173 63/38/174 68/39/175 67/40/176
f 63/179/177 64/180/178 69/181/179 68/182/180
f 64/180/181 65/183/182 70/184/183 69/181/184
f 65/177/185 61/173/186 66/176/187 70/178/188
f 62/101/189 61/102/190 71/103/191
f 63/105/192 62/101/189 71/103/191
f 64/106/193 63/105/192 71/103/191
f 65/104/194 64/106/193 71/103/191
f 61/102/190 65/104/194 71/103/191
f 66/107/195 67/108/196 72/109/197
f 67/108/196 68/110/198 72/109/197
f 68/110/198 69/112/199 72/109/197
f 69/112/199 70/111/200 72/109/197
f 70/111/200 66/107/195 72/109/197
