# This file uses centimeters as units for non-parametric coordinates.

v 0.042494 0.413406 0.320624
v -0.042494 0.413406 0.320624
v -0.084988 0.413406 0.394227
v -0.042494 0.413406 0.467829
v 0.042494 0.413406 0.467829
v 0.084988 0.413406 0.394227
v 0.042494 0.917992 0.320624
v -0.042494 0.917992 0.320624
v -0.084988 0.917992 0.394227
v -0.042494 0.917992 0.467829
v 0.042494 0.917992 0.467829
v 0.084988 0.917992 0.394227
v 0.000000 0.413406 0.394227
v 0.000000 0.917992 0.394227
v 0.014422 0.915183 0.369246
v -0.014422 0.915183 0.369246
v -0.028845 0.915183 0.394227
v -0.014422 0.915183 0.419207
v 0.014422 0.915183 0.419207
v 0.028845 0.915183 0.394227
v 0.014422 0.989272 0.369246
v -0.014422 0.989272 0.369246
v -0.028845 0.989272 0.394227
v -0.014422 0.989272 0.419207
v 0.014422 0.989272 0.419207
v 0.028845 0.989272 0.394227
v 0.000000 0.915183 0.394227
v 0.000000 0.989272 0.394227
v -0.024561 0.971365 0.379372
v -0.024561 0.954212 0.379372
v -0.024561 0.945636 0.394227
v -0.024561 0.954212 0.409081
v -0.024561 0.971365 0.409081
v -0.024561 0.979942 0.394227
v -0.118963 0.971365 0.379372
v -0.118963 0.954212 0.379372
v -0.118963 0.945636 0.394227
v -0.118963 0.954212 0.409081
v -0.118963 0.971365 0.409081
v -0.118963 0.979942 0.394227
v -0.024561 0.962789 0.394227
v -0.168705 0.941580 0.379372
v -0.168705 0.924427 0.379372
v -0.168705 0.915851 0.394227
v -0.168705 0.924427 0.409081
v -0.168705 0.941580 0.409081
v -0.168705 0.950157 0.394227
v -0.217218 0.906041 0.379372
v -0.200116 0.904721 0.379372
v -0.191565 0.904061 0.394227
v -0.200116 0.904721 0.409081
v -0.217218 0.906041 0.409081
v -0.225769 0.906701 0.394227
v -0.217218 0.790749 0.379372
v -0.200116 0.789429 0.379372
v -0.191565 0.788769 0.394227
v -0.200116 0.789429 0.409081
v -0.217218 0.790749 0.409081
v -0.225769 0.791409 0.394227
v -0.228517 0.625943 0.359743
v -0.188817 0.622879 0.359743
v -0.208667 0.624411 0.394227
v -0.168967 0.621348 0.394227
v -0.188817 0.622879 0.428710
v -0.228517 0.625943 0.428710
v -0.248367 0.627475 0.394227
vt 0.207678 0.001992
vt 0.300348 0.001992
vt 0.300348 0.637303
vt 0.207678 0.637303
vt 0.115008 0.001992
vt 0.115008 0.637303
vt 0.515655 0.001992
vt 0.608325 0.001992
vt 0.608325 0.637303
vt 0.515655 0.637303
vt 0.422985 0.001992
vt 0.422985 0.637303
vt 0.171327 0.859151
vt 0.202779 0.859151
vt 0.202779 0.952434
vt 0.171327 0.952434
vt 0.139875 0.859151
vt 0.139875 0.952434
vt 0.286101 0.859151
vt 0.317553 0.859151
vt 0.317553 0.952434
vt 0.286101 0.952434
vt 0.254649 0.859151
vt 0.254649 0.952434
vt 0.504388 0.876972
vt 0.504388 0.898569
vt 0.485684 0.887771
vt 0.485684 0.909367
vt 0.485684 0.866174
vt 0.466981 0.898569
vt 0.466981 0.876972
vt 0.599159 0.998008
vt 0.580456 0.997177
vt 0.580456 0.852016
vt 0.599159 0.852847
vt 0.561753 0.998008
vt 0.561753 0.852847
vt 0.580456 0.641220
vt 0.623874 0.643149
vt 0.537039 0.643149
vt 0.692016 0.797342
vt 0.673313 0.798173
vt 0.673313 0.653012
vt 0.692016 0.652181
vt 0.692016 0.842089
vt 0.673313 0.852887
vt 0.654610 0.797342
vt 0.654610 0.652181
vt 0.673313 0.446607
vt 0.716730 0.444679
vt 0.654610 0.842089
vt 0.629895 0.444679
vt 0.302248 0.801730
vt 0.302248 0.694723
vt 0.394919 0.748227
vt 0.394919 0.641220
vt 0.394919 0.855233
vt 0.487589 0.694723
vt 0.487589 0.801730
vt 0.296227 0.694724
vt 0.296227 0.801730
vt 0.203556 0.748227
vt 0.203556 0.855233
vt 0.203556 0.641220
vt 0.110886 0.801730
vt 0.110886 0.694724
vt 0.325427 0.913627
vt 0.325427 0.877310
vt 0.356879 0.895468
vt 0.356879 0.859151
vt 0.356879 0.931786
vt 0.388330 0.877310
vt 0.388330 0.913627
vt 0.459108 0.877310
vt 0.459108 0.913627
vt 0.427656 0.895468
vt 0.427656 0.931786
vt 0.427656 0.859151
vt 0.396204 0.913627
vt 0.396204 0.877310
vt 0.512314 0.641220
vt 0.531017 0.641220
vt 0.531017 0.760079
vt 0.512314 0.760079
vt 0.531017 0.822708
vt 0.512314 0.822708
vt 0.493611 0.641220
vt 0.493611 0.760079
vt 0.531017 0.862256
vt 0.512314 0.851490
vt 0.493611 0.822708
vt 0.493611 0.862256
vt 0.001955 0.901604
vt 0.001955 0.851619
vt 0.045372 0.876611
vt 0.045372 0.826626
vt 0.045372 0.926597
vt 0.088790 0.851619
vt 0.088790 0.901604
vt 0.067458 0.760079
vt 0.086161 0.760079
vt 0.086161 0.822708
vt 0.067458 0.822708
vt 0.067458 0.641220
vt 0.086161 0.641220
vt 0.104864 0.760079
vt 0.104864 0.822708
vt 0.104864 0.641220
vt 0.108962 0.637303
vt 0.001955 0.637303
vt 0.001955 0.001992
vt 0.108962 0.001992
vt 0.308211 0.001992
vt 0.415217 0.001992
vt 0.415217 0.637303
vt 0.308211 0.637303
vt 0.132196 0.952434
vt 0.095879 0.952434
vt 0.095879 0.859151
vt 0.132196 0.859151
vt 0.210653 0.859151
vt 0.246970 0.859151
vt 0.246970 0.952434
vt 0.210653 0.952434
vt 0.872982 0.001992
vt 0.872982 0.023589
vt 0.754124 0.023589
vt 0.754124 0.001992
vt 0.691494 0.061090
vt 0.691494 0.039494
vt 0.651946 0.085902
vt 0.630414 0.084240
vt 0.651946 0.231063
vt 0.630414 0.229401
vt 0.666173 0.440761
vt 0.616188 0.436904
vt 0.979547 0.861851
vt 0.979547 0.883448
vt 0.860688 0.883448
vt 0.860688 0.861851
vt 0.798059 0.845946
vt 0.798059 0.824350
vt 0.736978 0.801200
vt 0.758511 0.799538
vt 0.736978 0.656039
vt 0.758511 0.654377
vt 0.722752 0.448536
vt 0.772737 0.444679
vn 0.000000 0.000000 -1.000000
vn 0.000000 0.000000 -1.000000
vn 0.000000 0.000000 -1.000000
vn 0.000000 0.000000 -1.000000
vn -0.866025 0.000000 -0.500000
vn -0.866025 0.000000 -0.500000
vn -0.866025 0.000000 -0.500000
vn -0.866025 0.000000 -0.500000
vn -0.866026 0.000000 0.500000
vn -0.866026 0.000000 0.500000
vn -0.866026 0.000000 0.500000
vn -0.866026 0.000000 0.500000
vn 0.000000 0.000000 1.000000
vn 0.000000 0.000000 1.000000
vn 0.000000 0.000000 1.000000
vn 0.000000 0.000000 1.000000
vn 0.866025 0.000000 0.500000
vn 0.866025 0.000000 0.500000
vn 0.866025 0.000000 0.500000
vn 0.866025 0.000000 0.500000
vn 0.866026 0.000000 -0.500000
vn 0.866026 0.000000 -0.500000
vn 0.866026 0.000000 -0.500000
vn 0.866026 0.000000 -0.500000
vn 0.000000 -1.000000 0.000000
vn 0.000000 -1.000000 0.000000
vn 0.000000 -1.000000 0.000000
vn 0.000000 -1.000000 0.000000
vn 0.000000 -1.000000 0.000000
vn 0.000000 -1.000000 0.000000
vn 0.000000 -1.000000 0.000000
vn 0.000000 1.000000 0.000000
vn 0.000000 1.000000 0.000000
vn 0.000000 1.000000 0.000000
vn 0.000000 1.000000 0.000000
vn 0.000000 1.000000 0.000000
vn 0.000000 1.000000 0.000000
vn 0.000000 1.000000 0.000000
vn 0.000000 0.000000 -1.000000
vn 0.000000 0.000000 -1.000000
vn 0.000000 0.000000 -1.000000
vn 0.000000 0.000000 -1.000000
vn -0.866025 0.000000 -0.500000
vn -0.866025 0.000000 -0.500000
vn -0.866025 0.000000 -0.500000
vn -0.866025 0.000000 -0.500000
vn -0.866026 0.000000 0.500000
vn -0.866026 0.000000 0.500000
vn -0.866026 0.000000 0.500000
vn -0.866026 0.000000 0.500000
vn -0.000000 0.000000 1.000000
vn -0.000000 0.000000 1.000000
vn -0.000000 0.000000 1.000000
vn -0.000000 0.000000 1.000000
vn 0.866025 0.000000 0.500000
vn 0.866025 0.000000 0.500000
vn 0.866025 0.000000 0.500000
vn 0.866025 0.000000 0.500000
vn 0.866026 0.000000 -0.500000
vn 0.866026 0.000000 -0.500000
vn 0.866026 0.000000 -0.500000
vn 0.866026 0.000000 -0.500000
vn 0.000000 -1.000000 0.000000
vn 0.000000 -1.000000 0.000000
vn 0.000000 -1.000000 0.000000
vn 0.000000 -1.000000 0.000000
vn 0.000000 -1.000000 0.000001
vn 0.000000 -1.000000 0.000001
vn 0.000000 -1.000000 0.000000
vn 0.000000 1.000000 0.000001
vn 0.000000 1.000000 0.000001
vn 0.000000 1.000000 0.000000
vn 0.000000 1.000000 0.000000
vn 0.000000 1.000000 0.000001
vn 0.000000 1.000000 0.000000
vn 0.000000 1.000000 -0.000001
vn 0.000000 0.000000 -1.000000
vn 0.000000 0.000000 -1.000000
vn 0.000000 0.000000 -1.000000
vn 0.000000 0.000000 -1.000000
vn 0.000000 -0.866025 -0.500000
vn 0.000000 -0.866025 -0.500000
vn 0.000000 -0.866025 -0.500000
vn 0.000000 -0.866025 -0.500000
vn 0.000000 -0.866026 0.500000
vn 0.000000 -0.866026 0.500000
vn 0.000000 -0.866026 0.500000
vn 0.000000 -0.866026 0.500000
vn 0.000000 -0.000000 1.000000
vn 0.000000 -0.000000 1.000000
vn 0.000000 -0.000000 1.000000
vn 0.000000 -0.000000 1.000000
vn 0.000000 0.866024 0.500002
vn 0.000000 0.866024 0.500002
vn 0.000000 0.866024 0.500002
vn 0.000000 0.866024 0.500002
vn 0.000000 0.866024 -0.500002
vn 0.000000 0.866024 -0.500002
vn 0.000000 0.866024 -0.500002
vn 0.000000 0.866024 -0.500002
vn 1.000000 -0.000000 0.000000
vn 1.000000 0.000000 0.000000
vn 1.000000 -0.000000 0.000000
vn 1.000000 -0.000000 0.000000
vn 1.000000 0.000000 0.000000
vn 1.000000 0.000000 0.000000
vn 1.000000 0.000000 0.000000
vn -0.076942 -0.997036 -0.000000
vn -0.076941 -0.997036 0.000002
vn -0.076941 -0.997036 -0.000000
vn -0.076939 -0.997036 0.000000
vn -0.076941 -0.997036 -0.000002
vn -0.076942 -0.997036 0.000000
vn -0.076941 -0.997036 -0.000000
vn -0.000000 0.000000 -1.000000
vn -0.000000 0.000000 -1.000000
vn -0.000000 0.000000 -1.000000
vn -0.000000 0.000000 -1.000000
vn 0.460346 -0.768805 -0.443870
vn 0.460346 -0.768805 -0.443870
vn 0.460346 -0.768805 -0.443870
vn 0.460346 -0.768805 -0.443870
vn 0.460346 -0.768805 0.443870
vn 0.460346 -0.768805 0.443870
vn 0.460346 -0.768805 0.443870
vn 0.460346 -0.768805 0.443870
vn 0.000000 -0.000000 1.000000
vn 0.000000 -0.000000 1.000000
vn 0.000000 -0.000000 1.000000
vn 0.000000 -0.000000 1.000000
vn -0.460346 0.768805 0.443870
vn -0.460346 0.768805 0.443870
vn -0.460346 0.768805 0.443870
vn -0.460346 0.768805 0.443870
vn -0.460346 0.768805 -0.443870
vn -0.460347 0.768805 -0.443870
vn -0.460346 0.768805 -0.443870
vn -0.460346 0.768804 -0.443870
vn 0.000000 0.000000 -1.000000
vn 0.000000 0.000000 -1.000000
vn 0.000000 0.000000 -1.000000
vn 0.000000 0.000000 -1.000000
vn 0.463884 -0.799302 -0.382006
vn 0.463884 -0.799302 -0.382006
vn 0.463884 -0.799302 -0.382006
vn 0.463884 -0.799302 -0.382006
vn 0.463884 -0.799302 0.382006
vn 0.463884 -0.799302 0.382006
vn 0.463884 -0.799302 0.382006
vn 0.463884 -0.799302 0.382006
vn 0.000000 -0.000000 1.000000
vn 0.000000 -0.000000 1.000000
vn 0.000000 -0.000000 1.000000
vn 0.000000 -0.000000 1.000000
vn -0.552087 0.737854 0.388292
vn -0.552087 0.737854 0.388292
vn -0.552087 0.737854 0.388292
vn -0.552087 0.737854 0.388292
vn -0.552087 0.737854 -0.388292
vn -0.552087 0.737854 -0.388292
vn -0.552087 0.737854 -0.388292
vn -0.552087 0.737854 -0.388292
vn -0.000000 0.000000 -1.000000
vn -0.000000 0.000000 -1.000000
vn -0.000000 0.000000 -1.000000
vn -0.000000 0.000000 -1.000000
vn 0.866666 0.000000 -0.498888
vn 0.866666 0.000000 -0.498888
vn 0.866666 0.000000 -0.498888
vn 0.866666 0.000000 -0.498888
vn 0.866666 0.000000 0.498888
vn 0.866666 0.000000 0.498888
vn 0.866666 0.000000 0.498888
vn 0.866666 0.000000 0.498888
vn 0.000000 0.000000 1.000000
vn 0.000000 0.000000 1.000000
vn 0.000000 0.000000 1.000000
vn 0.000000 0.000000 1.000000
vn -0.866666 0.000000 0.498889
vn -0.866666 0.000000 0.498889
vn -0.866666 0.000000 0.498889
vn -0.866666 0.000000 0.498889
vn -0.866666 0.000000 -0.498889
vn -0.866666 0.000000 -0.498889
vn -0.866666 0.000000 -0.498889
vn -0.866666 0.000000 -0.498889
vn 0.009079 0.117648 -0.993014
vn 0.009079 0.117648 -0.993014
vn 0.009079 0.117648 -0.993014
vn 0.009079 0.117648 -0.993014
vn 0.862995 0.116485 -0.491600
vn 0.862995 0.116485 -0.491600
vn 0.862995 0.116485 -0.491600
vn 0.862995 0.116485 -0.491600
vn 0.862995 0.116485 0.491600
vn 0.862995 0.116485 0.491600
vn 0.862995 0.116485 0.491600
vn 0.862995 0.116485 0.491600
vn 0.009079 0.117648 0.993014
vn 0.009079 0.117648 0.993014
vn 0.009079 0.117648 0.993014
vn 0.009079 0.117648 0.993014
vn -0.858297 0.118316 0.499328
vn -0.858297 0.118316 0.499328
vn -0.858297 0.118316 0.499328
vn -0.858297 0.118316 0.499328
vn -0.858297 0.118316 -0.499328
vn -0.858297 0.118316 -0.499328
vn -0.858297 0.118316 -0.499328
vn -0.858297 0.118316 -0.499328
f 1/109/1 2/110/2 8/111/3 7/112/4
f 2/5/5 3/1/6 9/4/7 8/6/8
f 3/1/9 4/2/10 10/3/11 9/4/12
f 4/113/13 5/114/14 11/115/15 10/116/16
f 5/11/17 6/7/18 12/10/19 11/12/20
f 6/7/21 1/8/22 7/9/23 12/10/24
f 2/53/25 1/54/26 13/55/27
f 3/57/28 2/53/25 13/55/27
f 4/59/29 3/57/28 13/55/27
f 5/58/30 4/59/29 13/55/27
f 6/56/31 5/58/30 13/55/27
f 1/54/26 6/56/31 13/55/27
f 7/60/32 8/61/33 14/62/34
f 8/61/33 9/63/35 14/62/34
f 9/63/35 10/65/36 14/62/34
f 10/65/36 11/66/37 14/62/34
f 11/66/37 12/64/38 14/62/34
f 12/64/38 7/60/32 14/62/34
f 15/117/39 16/118/40 22/119/41 21/120/42
f 16/17/43 17/13/44 23/16/45 22/18/46
f 17/13/47 18/14/48 24/15/49 23/16/50
f 18/121/51 19/122/52 25/123/53 24/124/54
f 19/23/55 20/19/56 26/22/57 25/24/58
f 20/19/59 15/20/60 21/21/61 26/22/62
f 16/67/63 15/68/64 27/69/65
f 17/71/66 16/67/63 27/69/65
f 18/73/67 17/71/66 27/69/65
f 19/72/68 18/73/67 27/69/65
f 20/70/69 19/72/68 27/69/65
f 15/68/64 20/70/69 27/69/65
f 21/74/70 22/75/71 28/76/72
f 22/75/71 23/77/73 28/76/72
f 23/77/73 24/79/74 28/76/72
f 24/79/74 25/80/75 28/76/72
f 25/80/75 26/78/76 28/76/72
f 26/78/76 21/74/70 28/76/72
f 29/125/77 30/126/78 36/127/79 35/128/80
f 30/87/81 31/81/82 37/84/83 36/88/84
f 31/81/85 32/82/86 38/83/87 37/84/88
f 32/137/89 33/138/90 39/139/91 38/140/92
f 33/104/93 34/105/94 40/101/95 39/100/96
f 34/105/97 29/108/98 35/106/99 40/101/100
f 30/25/101 29/26/102 41/27/103
f 31/29/104 30/25/101 41/27/103
f 32/31/105 31/29/104 41/27/103
f 33/30/106 32/31/105 41/27/103
f 34/28/107 33/30/106 41/27/103
f 29/26/102 34/28/107 41/27/103
f 60/93/108 61/94/109 62/95/110
f 61/94/109 63/96/111 62/95/110
f 63/96/111 64/98/112 62/95/110
f 64/98/112 65/99/113 62/95/110
f 65/99/113 66/97/114 62/95/110
f 66/97/114 60/93/108 62/95/110
f 35/128/115 36/127/116 43/129/117 42/130/118
f 36/88/119 37/84/120 44/86/121 43/91/122
f 37/84/123 38/83/124 45/85/125 44/86/126
f 38/140/127 39/139/128 46/141/129 45/142/130
f 39/100/131 40/101/132 47/102/133 46/103/134
f 40/101/135 35/106/136 42/107/137 47/102/138
f 42/130/139 43/129/140 49/131/141 48/132/142
f 43/91/143 44/86/144 50/90/145 49/92/146
f 44/86/147 45/85/148 51/89/149 50/90/150
f 45/142/151 46/141/152 52/143/153 51/144/154
f 46/45/155 47/46/156 53/42/157 52/41/158
f 47/46/159 42/51/160 48/47/161 53/42/162
f 48/132/163 49/131/164 55/133/165 54/134/166
f 49/32/167 50/33/168 56/34/169 55/35/170
f 50/33/171 51/36/172 57/37/173 56/34/174
f 51/144/175 52/143/176 58/145/177 57/146/178
f 52/41/179 53/42/180 59/43/181 58/44/182
f 53/42/183 48/47/184 54/48/185 59/43/186
f 54/134/187 55/133/188 61/135/189 60/136/190
f 55/35/191 56/34/192 63/38/193 61/39/194
f 56/34/195 57/37/196 64/40/197 63/38/198
f 57/146/199 58/145/200 65/147/201 64/148/202
f 58/44/203 59/43/204 66/49/205 65/50/206
f 59/43/207 54/48/208 60/52/209 66/49/210
