# This file uses centimeters as units for non-parametric coordinates.

v -0.039873 0.673753 0.383720
v -0.028238 0.681658 0.383720
v -0.115421 0.784952 0.383720
v -0.103786 0.792857 0.383720
v -0.115421 0.784952 0.052716
v -0.103786 0.792857 0.052716
v -0.039873 0.673753 0.052716
v -0.028238 0.681658 0.052716
v -0.499079 0.000000 0.500000
v 0.000000 0.000000 0.500000
v -0.499079 1.546533 0.500000
v -0.275225 1.546533 0.500000
v -0.499079 1.546533 -0.500000
v -0.275225 1.546533 -0.500000
v -0.499079 0.000000 -0.500000
v 0.000000 0.000000 -0.500000
v -0.499079 0.624269 0.500000
v -0.499079 0.624269 -0.500000
v 0.000000 0.624269 -0.500000
v 0.000000 0.624269 0.500000
v -0.275225 1.037757 0.500000
v -0.499079 1.037757 0.500000
v -0.499079 1.037757 -0.500000
v -0.275225 1.037757 -0.500000
v -0.274841 1.129686 0.423656
v -0.260775 1.129686 0.423656
v -0.274841 1.511267 0.423656
v -0.260775 1.511267 0.423656
v -0.274841 1.511267 -0.423656
v -0.260775 1.511267 -0.423656
v -0.274841 1.129686 -0.423656
v -0.260775 1.129686 -0.423656
vt 0.335103 0.001992
vt 0.655940 0.001992
vt 0.655940 0.202280
vt 0.335103 0.202280
vt 0.655940 0.334942
vt 0.335103 0.334942
vt 0.655940 0.498176
vt 0.335103 0.498176
vt 0.591325 0.501824
vt 0.912162 0.501824
vt 0.912162 0.702112
vt 0.591325 0.702112
vt 0.912162 0.834774
vt 0.591325 0.834774
vt 0.912162 0.998008
vt 0.591325 0.998008
vt 0.199894 0.773673
vt 0.199894 0.501824
vt 0.322319 0.501824
vt 0.322319 0.773673
vt 0.071861 0.773673
vt 0.071861 0.501824
vt 0.194286 0.501824
vt 0.194286 0.773673
vt 0.513897 0.501824
vt 0.585718 0.501824
vt 0.585718 0.822660
vt 0.513897 0.822660
vt 0.348167 0.501824
vt 0.508290 0.501824
vt 0.508290 0.822660
vt 0.348167 0.822660
vt 0.338047 0.501824
vt 0.342560 0.501824
vt 0.342560 0.773673
vt 0.338047 0.773673
vt 0.327926 0.501824
vt 0.332439 0.501824
vt 0.332439 0.773673
vt 0.327926 0.773673
vt 0.035144 0.611670
vt 0.038877 0.614207
vt 0.014638 0.649883
vt 0.010905 0.647347
vt 0.044750 0.779857
vt 0.048483 0.777321
vt 0.072722 0.812997
vt 0.068989 0.815534
vt 0.001821 0.001992
vt 0.161943 0.001992
vt 0.161943 0.202280
vt 0.001821 0.202280
vt 0.073641 0.334942
vt 0.001821 0.334942
vt 0.073641 0.498176
vt 0.001821 0.498176
vt 0.167660 0.297888
vt 0.327783 0.297888
vt 0.327783 0.498176
vt 0.167660 0.498176
vt 0.167660 0.165226
vt 0.239481 0.165226
vt 0.167660 0.001992
vt 0.239481 0.001992
vt 0.061741 0.501824
vt 0.066254 0.501824
vt 0.066254 0.624249
vt 0.061741 0.624249
vt 0.051620 0.501824
vt 0.056133 0.501824
vt 0.056133 0.624249
vt 0.051620 0.624249
vt 0.043476 0.501824
vt 0.046013 0.501824
vt 0.046013 0.608022
vt 0.043476 0.608022
vt 0.010336 0.501824
vt 0.010336 0.608022
vt 0.007800 0.608022
vt 0.007800 0.501824
vt 0.001821 0.611670
vt 0.004357 0.611670
vt 0.004357 0.717868
vt 0.001821 0.717868
vn 0.000000 0.000000 1.000000
vn 0.000000 0.000000 1.000000
vn 0.000000 0.000000 1.000000
vn 0.000000 0.000000 1.000000
vn -0.561965 0.827161 0.000000
vn -0.561965 0.827161 0.000000
vn -0.561965 0.827161 0.000000
vn -0.561965 0.827161 0.000000
vn 0.000000 0.000000 -1.000000
vn 0.000000 0.000000 -1.000000
vn 0.000000 0.000000 -1.000000
vn 0.000000 0.000000 -1.000000
vn 0.561965 -0.827161 0.000000
vn 0.561965 -0.827161 0.000000
vn 0.561965 -0.827161 0.000000
vn 0.561965 -0.827161 0.000000
vn 0.827161 0.561966 0.000000
vn 0.827161 0.561966 0.000000
vn 0.827161 0.561966 0.000000
vn 0.827161 0.561966 0.000000
vn -0.827161 -0.561966 0.000000
vn -0.827161 -0.561966 0.000000
vn -0.827161 -0.561966 0.000000
vn -0.827161 -0.561966 0.000000
vn 0.000000 0.000000 1.000000
vn 0.000000 0.000000 1.000000
vn 0.000000 0.000000 1.000000
vn 0.000000 0.000000 1.000000
vn 0.000000 1.000000 0.000000
vn 0.000000 1.000000 0.000000
vn 0.000000 1.000000 0.000000
vn 0.000000 1.000000 0.000000
vn 0.000000 0.000000 -1.000000
vn 0.000000 0.000000 -1.000000
vn 0.000000 0.000000 -1.000000
vn 0.000000 0.000000 -1.000000
vn 0.000000 -1.000000 0.000000
vn 0.000000 -1.000000 0.000000
vn 0.000000 -1.000000 0.000000
vn 0.000000 -1.000000 0.000000
vn 1.000000 0.000000 0.000000
vn 1.000000 0.000000 0.000000
vn 0.966584 0.256350 0.000000
vn 0.966584 0.256350 0.000000
vn -1.000000 0.000000 0.000000
vn -1.000000 0.000000 0.000000
vn -1.000000 0.000000 0.000000
vn -1.000000 0.000000 0.000000
vn -1.000000 0.000000 0.000000
vn -1.000000 0.000000 0.000000
vn -1.000000 0.000000 0.000000
vn -1.000000 0.000000 0.000000
vn 0.000000 0.000000 -1.000000
vn 0.000000 0.000000 -1.000000
vn 0.000000 0.000000 -1.000000
vn 0.000000 0.000000 -1.000000
vn 0.966584 0.256350 0.000000
vn 0.966584 0.256350 0.000000
vn 0.958241 0.285962 0.000000
vn 0.958241 0.285962 0.000000
vn 0.000000 0.000000 1.000000
vn 0.000000 0.000000 1.000000
vn 0.000000 0.000000 1.000000
vn 0.000000 0.000000 1.000000
vn 0.000000 0.000000 1.000000
vn 0.000000 0.000000 1.000000
vn 0.000000 0.000000 1.000000
vn 0.000000 0.000000 1.000000
vn -1.000000 0.000000 0.000000
vn -1.000000 0.000000 0.000000
vn -1.000000 0.000000 0.000000
vn -1.000000 0.000000 0.000000
vn 0.000000 0.000000 -1.000000
vn 0.000000 0.000000 -1.000000
vn 0.000000 0.000000 -1.000000
vn 0.000000 0.000000 -1.000000
vn 0.958241 0.285962 0.000000
vn 0.958241 0.285962 0.000000
vn 1.000000 0.000000 0.000000
vn 1.000000 0.000000 0.000000
vn 0.000000 0.000000 1.000000
vn 0.000000 0.000000 1.000000
vn 0.000000 0.000000 1.000000
vn 0.000000 0.000000 1.000000
vn 0.000000 1.000000 0.000000
vn 0.000000 1.000000 0.000000
vn 0.000000 1.000000 0.000000
vn 0.000000 1.000000 0.000000
vn 0.000000 0.000000 -1.000000
vn 0.000000 0.000000 -1.000000
vn 0.000000 0.000000 -1.000000
vn 0.000000 0.000000 -1.000000
vn 0.000000 -1.000000 0.000000
vn 0.000000 -1.000000 0.000000
vn 0.000000 -1.000000 0.000000
vn 0.000000 -1.000000 0.000000
vn 1.000000 0.000000 0.000000
vn 1.000000 0.000000 0.000000
vn 1.000000 0.000000 0.000000
vn 1.000000 0.000000 0.000000
vn -1.000000 0.000000 0.000000
vn -1.000000 0.000000 0.000000
vn -1.000000 0.000000 0.000000
vn -1.000000 0.000000 0.000000
f 1/41/1 2/42/2 4/43/3 3/44/4
f 3/73/5 4/74/6 6/75/7 5/76/8
f 5/45/9 6/46/10 8/47/11 7/48/12
f 7/81/13 8/82/14 2/83/15 1/84/16
f 2/77/17 8/78/18 6/75/19 4/74/20
f 7/79/21 1/80/22 3/73/23 5/76/24
f 9/49/25 10/50/26 20/51/27 17/52/28
f 11/25/29 12/26/30 14/27/31 13/28/32
f 18/57/33 19/58/34 16/59/35 15/60/36
f 15/29/37 16/30/38 10/31/39 9/32/40
f 10/1/41 16/2/42 19/3/43 20/4/44
f 15/9/45 9/10/46 17/11/47 18/12/48
f 18/12/49 17/11/50 22/13/51 23/14/52
f 23/61/53 24/62/54 19/58/55 18/57/56
f 20/4/57 19/3/58 24/5/59 21/6/60
f 17/52/61 20/51/62 21/53/63 22/54/64
f 22/54/65 21/53/66 12/55/67 11/56/68
f 23/14/69 22/13/70 11/15/71 13/16/72
f 13/63/73 14/64/74 24/62/75 23/61/76
f 21/6/77 24/5/78 14/7/79 12/8/80
f 25/65/81 26/66/82 28/67/83 27/68/84
f 27/33/85 28/34/86 30/35/87 29/36/88
f 29/69/89 30/70/90 32/71/91 31/72/92
f 31/37/93 32/38/94 26/39/95 25/40/96
f 26/17/97 32/18/98 30/19/99 28/20/100
f 31/21/101 25/22/102 27/23/103 29/24/104
