# This file uses centimeters as units for non-parametric coordinates.

mtllib Lamp.mtl
v -0.452899 1.719361 0.118820
v -0.452899 1.664521 0.137101
v -0.452899 1.609680 0.137101
v -0.452899 1.554840 0.111204
v -0.437302 1.719361 0.118820
v -0.437302 1.664521 0.137101
v -0.437302 1.609680 0.137101
v -0.437302 1.554840 0.111204
v -0.421704 1.719361 0.118820
v -0.421704 1.664521 0.137101
v -0.421704 1.609680 0.137101
v -0.421704 1.554840 0.111204
v -0.405935 1.719432 0.118445
v -0.405935 1.664592 0.136725
v -0.406195 1.610554 0.136958
v -0.406195 1.555713 0.111061
v -0.405935 1.774272 0.045325
v -0.368074 1.682801 0.045700
v -0.368074 1.591400 0.045700
v -0.406195 1.500873 0.045558
v -0.405266 1.774302 -0.046316
v -0.368074 1.682801 -0.045700
v -0.368074 1.591400 -0.045700
v -0.406496 1.500501 -0.045430
v -0.405266 1.715613 -0.119436
v -0.405266 1.663820 -0.137716
v -0.406496 1.611705 -0.136830
v -0.406496 1.559911 -0.110933
v -0.421704 1.714791 -0.118820
v -0.421704 1.662997 -0.137101
v -0.421704 1.611204 -0.137101
v -0.421704 1.559410 -0.111204
v -0.437302 1.714791 -0.118820
v -0.437302 1.662997 -0.137101
v -0.437302 1.611204 -0.137101
v -0.437302 1.559410 -0.111204
v -0.452899 1.714791 -0.118820
v -0.452899 1.662997 -0.137101
v -0.452899 1.611204 -0.137101
v -0.452899 1.559410 -0.111204
v -0.452899 1.774201 -0.045700
v -0.453012 1.682801 -0.045700
v -0.453012 1.591400 -0.045700
v -0.452899 1.500000 -0.045700
v -0.452899 1.774201 0.045700
v -0.453012 1.682801 0.045700
v -0.453012 1.591400 0.045700
v -0.452899 1.500000 0.045700
v -0.437302 1.500000 -0.045700
v -0.437302 1.500000 0.045700
v -0.421704 1.500000 -0.045700
v -0.421704 1.500000 0.045700
v -0.437302 1.774201 -0.045700
v -0.437302 1.774201 0.045700
v -0.421704 1.774201 -0.045700
v -0.421704 1.774201 0.045700
v -0.401199 1.600907 0.039030
v -0.403781 1.596205 -0.046631
v -0.400684 1.679728 -0.038891
v -0.406889 1.675252 0.043919
vt 0.851374 0.775140
vt 0.823543 0.775140
vt 0.823543 0.612050
vt 0.851374 0.612050
vt 0.879205 0.612050
vt 0.906343 0.612532
vt 0.906879 0.774886
vt 0.879205 0.775140
vt 0.851374 0.892021
vt 0.823543 0.892021
vt 0.906879 0.891767
vt 0.879205 0.892021
vt 0.823543 0.495169
vt 0.851374 0.495169
vt 0.879205 0.495169
vt 0.906343 0.495651
vt 0.940845 0.625641
vt 0.968677 0.625641
vt 0.996814 0.626310
vt 0.998008 0.789829
vt 0.968677 0.788731
vt 0.940845 0.788731
vt 0.913014 0.788731
vt 0.913014 0.625641
vt 0.940845 0.495169
vt 0.968677 0.495169
vt 0.996814 0.495838
vt 0.913014 0.495169
vt 0.998008 0.920301
vt 0.968677 0.919203
vt 0.940845 0.919203
vt 0.913014 0.919203
vt 0.477540 0.710332
vt 0.409518 0.873168
vt 0.418433 0.698431
vt 0.711606 0.792849
vt 0.780164 0.955457
vt 0.716449 0.953796
vt 0.401822 0.709293
vt 0.335458 0.873481
vt 0.343634 0.697143
vt 0.637299 0.777881
vt 0.704857 0.940302
vt 0.635597 0.943480
vt 0.151664 0.593867
vt 0.119046 0.496013
vt 0.284644 0.515034
vt 0.282136 0.691721
vt 0.197754 0.002322
vt 0.294177 0.001907
vt 0.328353 0.164743
vt 0.165263 0.164743
vt 0.328353 0.327833
vt 0.165263 0.327833
vt 0.489885 0.164997
vt 0.490549 0.327351
vt 0.292123 0.490441
vt 0.199131 0.492021
vt 0.002046 0.165412
vt 0.001992 0.328931
vt 0.001992 0.891420
vt 0.048201 0.793566
vt 0.165082 0.695712
vt 0.176730 0.874208
vt 0.304027 0.693152
vt 0.290780 0.524399
vt 0.467117 0.496013
vt 0.434499 0.588431
vt 0.475396 0.666782
vt 0.473253 0.496013
vt 0.590134 0.602021
vt 0.636343 0.694439
vt 0.603229 0.034525
vt 0.695647 0.001907
vt 0.660311 0.164997
vt 0.497221 0.164997
vt 0.788065 0.001907
vt 0.823401 0.164997
vt 0.660311 0.328087
vt 0.497221 0.328087
vt 0.880483 0.048116
vt 0.986491 0.164997
vt 0.823401 0.328087
vt 0.692929 0.491177
vt 0.595075 0.458559
vt 0.986491 0.328087
vt 0.790783 0.491177
vt 0.888637 0.444969
vt 0.761439 0.690877
vt 0.789270 0.690877
vt 0.817407 0.691004
vt 0.817407 0.788858
vt 0.789270 0.788731
vt 0.761439 0.788731
vt 0.733607 0.788731
vt 0.733607 0.690877
vt 0.761439 0.593023
vt 0.789270 0.593023
vt 0.816943 0.594581
vt 0.733607 0.593023
vt 0.761439 0.495169
vt 0.789270 0.495169
vt 0.816943 0.496727
vt 0.733607 0.495169
vt 0.699641 0.680004
vt 0.727472 0.680004
vt 0.727472 0.772422
vt 0.699641 0.772422
vt 0.671809 0.772422
vt 0.642478 0.773890
vt 0.642478 0.681472
vt 0.671809 0.680004
vt 0.699641 0.587586
vt 0.727472 0.587586
vt 0.644672 0.588480
vt 0.671809 0.587586
vt 0.699641 0.495169
vt 0.727472 0.495169
vt 0.644672 0.496063
vt 0.671809 0.495169
vt 0.183439 0.695712
vt 0.251462 0.857245
vt 0.192354 0.874208
vt 0.485527 0.860627
vt 0.554086 0.698431
vt 0.549242 0.869200
vt 0.627901 0.867184
vt 0.561536 0.703913
vt 0.619725 0.698431
vt 0.328709 0.710614
vt 0.261151 0.873831
vt 0.259449 0.697143
vn 0.006393 0.165148 0.986248
vn 0.006393 0.165148 0.986248
vn 0.006399 0.166225 0.986067
vn 0.007098 0.316220 0.948659
vn 0.007098 0.316220 0.948659
vn 0.007098 0.316220 0.948659
vn 0.007098 0.316220 0.948659
vn 0.006393 0.165148 0.986248
vn 0.008446 -0.229429 0.973289
vn 0.008446 -0.229429 0.973289
vn 0.008354 -0.221947 0.975023
vn 0.008446 -0.229429 0.973289
vn 0.010740 -0.426982 0.904197
vn 0.010740 -0.426982 0.904197
vn 0.010740 -0.426982 0.904196
vn 0.010740 -0.426982 0.904197
vn 0.999938 -0.007140 -0.008568
vn 0.999938 -0.007140 -0.008568
vn 0.999938 -0.007140 -0.008568
vn 0.999938 -0.007140 -0.008568
vn 0.923017 -0.001036 0.384758
vn 0.923017 -0.001036 0.384758
vn 0.982535 -0.152965 0.105954
vn 0.982956 0.148978 0.107717
vn 0.998247 -0.037890 0.045468
vn 0.998247 -0.037890 0.045468
vn 0.998247 -0.037890 0.045468
vn 0.998247 -0.037890 0.045468
vn 0.925177 0.379519 0.003445
vn 0.983678 0.147681 -0.102803
vn 0.925178 0.379519 0.003445
vn 0.982240 -0.156015 -0.104227
vn 0.921355 -0.388721 -0.000725
vn 0.921355 -0.388721 -0.000725
vn 0.998548 0.034338 -0.041507
vn 0.998548 0.034338 -0.041507
vn 0.998548 0.034338 -0.041507
vn 0.998548 0.034338 -0.041507
vn 0.924244 -0.010275 -0.381664
vn 0.924244 -0.010275 -0.381664
vn 0.999304 -0.023687 -0.028818
vn 0.999304 -0.023687 -0.028818
vn 0.999304 -0.023687 -0.028818
vn 0.999304 -0.023687 -0.028818
vn -0.011162 0.173452 -0.984779
vn -0.011162 0.173452 -0.984779
vn -0.017930 0.332767 -0.942839
vn -0.017930 0.332767 -0.942839
vn -0.017930 0.332767 -0.942838
vn -0.017930 0.332767 -0.942838
vn -0.011417 0.179401 -0.983710
vn -0.011162 0.173452 -0.984779
vn 0.003668 -0.242233 -0.970211
vn 0.003668 -0.242233 -0.970211
vn 0.003498 -0.236669 -0.971584
vn 0.003668 -0.242233 -0.970211
vn 0.010039 -0.447191 -0.894382
vn 0.010039 -0.447191 -0.894382
vn 0.010039 -0.447191 -0.894382
vn 0.010039 -0.447191 -0.894382
vn -0.999999 0.000934 -0.001136
vn -0.999999 0.000304 -0.001203
vn -1.000000 0.000798 -0.000696
vn -0.999999 0.001153 -0.000309
vn -0.999999 -0.000284 -0.001234
vn -0.999999 -0.000817 -0.000713
vn -0.999999 -0.001011 -0.001230
vn -0.999999 -0.001180 -0.000301
vn -1.000000 0.000783 0.000689
vn -0.999999 0.001141 0.000312
vn -1.000000 0.000000 0.000000
vn -1.000000 0.000000 0.000000
vn -1.000000 0.000000 0.000000
vn -1.000000 0.000000 0.000000
vn -0.999999 -0.001169 0.000305
vn -0.999999 -0.000801 0.000705
vn -0.999999 0.000305 0.001186
vn -0.999999 0.000908 0.001090
vn -0.999999 -0.000287 0.001218
vn -0.999999 -0.000979 0.001176
vn 0.014306 -0.935396 -0.353313
vn 0.014306 -0.935396 -0.353313
vn 0.011910 -0.740666 -0.671768
vn 0.011910 -0.740666 -0.671768
vn 0.011910 -0.740666 -0.671768
vn 0.011910 -0.740666 -0.671768
vn 0.014312 -0.935921 -0.351918
vn 0.014306 -0.935396 -0.353313
vn 0.016473 -0.943524 0.330894
vn 0.016473 -0.943524 0.330894
vn 0.016479 -0.942636 0.333414
vn 0.016473 -0.943524 0.330894
vn 0.016290 -0.766657 0.641851
vn 0.016290 -0.766657 0.641851
vn 0.016290 -0.766657 0.641851
vn 0.016290 -0.766657 0.641851
vn -0.009394 0.940348 -0.340083
vn -0.009394 0.940348 -0.340083
vn -0.009557 0.937614 -0.347546
vn -0.015636 0.776666 -0.629719
vn -0.015636 0.776666 -0.629719
vn -0.015636 0.776666 -0.629719
vn -0.015636 0.776666 -0.629719
vn -0.009394 0.940348 -0.340083
vn 0.000916 0.949070 0.315063
vn 0.000916 0.949070 0.315063
vn 0.000868 0.950816 0.309756
vn 0.000916 0.949070 0.315063
vn 0.003580 0.799995 0.599996
vn 0.003580 0.799995 0.599996
vn 0.003580 0.799995 0.599996
vn 0.003580 0.799995 0.599996
vn -0.176727 0.072876 0.981558
vn -0.176727 0.072876 0.981558
vn -0.176727 0.072876 0.981558
vn -0.289683 -0.953842 0.079178
vn -0.289683 -0.953842 0.079178
vn -0.289683 -0.953842 0.079178
vn 0.024284 -0.013237 -0.999618
vn 0.024284 -0.013237 -0.999618
vn 0.024284 -0.013237 -0.999618
vn -0.127327 -0.978165 -0.164258
vn -0.127327 -0.978165 -0.164258
vn -0.127327 -0.978165 -0.164258
vn -0.195838 -0.086173 -0.976843
vn -0.195837 -0.086173 -0.976843
vn -0.195838 -0.086173 -0.976843
vn -0.124142 0.980540 -0.152085
vn -0.124142 0.980540 -0.152085
vn -0.124142 0.980540 -0.152085
vn -0.194698 0.974227 0.113902
vn -0.194698 0.974227 0.113902
vn -0.194698 0.974227 0.113902
vn -0.043157 -0.013767 0.998973
vn -0.043157 -0.013767 0.998973
vn -0.043157 -0.013767 0.998973
s 1
usemtl initialShadingGroup
f 6/89/1 10/90/2 14/91/3 13/92/4 9/93/5 5/94/6 1/95/7 2/96/8
f 7/97/9 11/98/10 15/99/11 14/91/3 10/90/2 6/89/1 2/96/8 3/100/12
f 8/101/13 12/102/14 16/103/15 15/99/11 11/98/10 7/97/9 3/100/12 4/104/16
s off
f 13/45/17 14/46/18 60/47/19 17/48/20
s 2
f 14/49/21 15/50/22 19/51/23 18/52/24
s off
f 15/61/25 16/62/26 20/63/27 57/64/28
s 2
f 17/59/29 18/52/24 22/54/30 21/60/31
f 18/52/24 19/51/23 23/53/32 22/54/30
f 19/51/23 20/55/33 24/56/34 23/53/32
s off
f 21/65/35 59/66/36 26/67/37 25/68/38
s 2
f 22/54/30 23/53/32 27/57/39 26/58/40
s off
f 58/69/41 24/70/42 28/71/43 27/72/44
s 3
f 34/105/45 38/106/46 37/107/47 33/108/48 29/109/49 25/110/50 26/111/51 30/112/52
f 35/113/53 39/114/54 38/106/46 34/105/45 30/112/52 26/111/51 27/115/55 31/116/56
f 36/117/57 40/118/58 39/114/54 35/113/53 31/116/56 27/115/55 28/119/59 32/120/60
s 4
f 37/73/61 38/74/62 42/75/63 41/76/64
f 38/74/62 39/77/65 43/78/66 42/75/63
f 39/77/65 40/81/67 44/82/68 43/78/66
f 41/76/64 42/75/63 46/79/69 45/80/70
s off
f 42/75/71 43/78/72 47/83/73 46/79/74
s 4
f 43/78/66 44/82/68 48/86/75 47/83/76
f 45/80/70 46/79/69 2/84/77 1/85/78
f 46/79/69 47/83/76 3/87/79 2/84/77
f 47/83/76 48/86/75 4/88/80 3/87/79
s 5
f 49/4/81 44/3/82 40/13/83 36/14/84 32/15/85 28/16/86 24/6/87 51/5/88
f 50/1/89 48/2/90 44/3/82 49/4/81 51/5/88 24/6/87 20/7/91 52/8/92
f 8/9/93 4/10/94 48/2/90 50/1/89 52/8/92 20/7/91 16/11/95 12/12/96
s 6
f 53/22/97 55/21/98 21/20/99 25/29/100 29/30/101 33/31/102 37/32/103 41/23/104
f 54/17/105 56/18/106 17/19/107 21/20/99 55/21/98 53/22/97 41/23/104 45/24/108
f 5/25/109 9/26/110 13/27/111 17/19/107 56/18/106 54/17/105 45/24/108 1/28/112
s off
f 20/121/113 19/122/114 57/123/115
f 19/33/116 15/34/117 57/35/118
f 23/124/119 24/125/120 58/126/121
f 27/36/122 23/37/123 58/38/124
f 21/127/125 22/128/126 59/129/127
f 22/39/128 26/40/129 59/41/130
f 14/42/131 18/43/132 60/44/133
f 18/130/134 17/131/135 60/132/136
