# This file uses centimeters as units for non-parametric coordinates.

mtllib Oven.mtl
g default
v -0.437618 0.884008 0.470815
v -0.458056 0.863571 0.470815
v -0.437618 0.843133 0.470815
v -0.417181 0.863571 0.470815
v -0.458056 0.863571 0.551402
v -0.437618 0.843133 0.531545
v -0.417181 0.863571 0.511687
v -0.437618 0.884008 0.531545
v 0.437102 0.884008 0.470815
v 0.457539 0.863571 0.470815
v 0.437102 0.843133 0.470815
v 0.416664 0.863571 0.470815
v 0.457539 0.863571 0.551402
v 0.437102 0.843133 0.531545
v 0.416664 0.863571 0.511687
v 0.437102 0.884008 0.531545
v -0.038414 1.000000 -0.321059
v -0.147406 1.000000 -0.400247
v -0.282128 1.000000 -0.400247
v -0.391120 1.000000 -0.321059
v -0.432752 1.000000 -0.192931
v -0.391120 1.000000 -0.064803
v -0.282128 1.000000 0.014385
v -0.147406 1.000000 0.014385
v -0.038414 1.000000 -0.064803
v 0.003217 1.000000 -0.192931
v -0.038414 1.024189 -0.321059
v -0.147406 1.024189 -0.400247
v -0.282128 1.024189 -0.400247
v -0.391120 1.024189 -0.321059
v -0.432752 1.024189 -0.192931
v -0.391120 1.024189 -0.064803
v -0.282128 1.024189 0.014385
v -0.147406 1.024189 0.014385
v -0.038414 1.024189 -0.064803
v 0.003217 1.024189 -0.192931
v -0.214767 1.024189 -0.192931
v -0.095803 1.000000 0.167963
v -0.171244 1.000000 0.113152
v -0.264493 1.000000 0.113152
v -0.339933 1.000000 0.167963
v -0.368749 1.000000 0.256648
v -0.339933 1.000000 0.345333
v -0.264493 1.000000 0.400144
v -0.171244 1.000000 0.400144
v -0.095803 1.000000 0.345333
v -0.066988 1.000000 0.256648
v -0.095803 1.024189 0.167963
v -0.171244 1.024189 0.113152
v -0.264493 1.024189 0.113152
v -0.339933 1.024189 0.167963
v -0.368749 1.024189 0.256648
v -0.339933 1.024189 0.345333
v -0.264493 1.024189 0.400144
v -0.171244 1.024189 0.400144
v -0.095803 1.024189 0.345333
v -0.066988 1.024189 0.256648
v -0.217868 1.024189 0.256648
v 0.403425 1.000000 0.156828
v 0.318513 1.000000 0.095137
v 0.213556 1.000000 0.095137
v 0.128645 1.000000 0.156829
v 0.096211 1.000000 0.256648
v 0.128645 1.000000 0.356468
v 0.213556 1.000000 0.418160
v 0.318513 1.000000 0.418160
v 0.403425 1.000000 0.356468
v 0.435858 1.000000 0.256648
v 0.403425 1.024189 0.156828
v 0.318513 1.024189 0.095137
v 0.213556 1.024189 0.095137
v 0.128645 1.024189 0.156829
v 0.096211 1.024189 0.256648
v 0.128645 1.024189 0.356468
v 0.213556 1.024189 0.418160
v 0.318513 1.024189 0.418160
v 0.403425 1.024189 0.356468
v 0.435858 1.024189 0.256648
v 0.266035 1.024189 0.256648
v 0.419878 1.000000 -0.304704
v 0.324797 1.000000 -0.373784
v 0.207272 1.000000 -0.373784
v 0.112192 1.000000 -0.304704
v 0.075875 1.000000 -0.192931
v 0.112192 1.000000 -0.081158
v 0.207272 1.000000 -0.012078
v 0.324797 1.000000 -0.012078
v 0.419877 1.000000 -0.081158
v 0.456195 1.000000 -0.192931
v 0.419878 1.024189 -0.304704
v 0.324797 1.024189 -0.373784
v 0.207272 1.024189 -0.373784
v 0.112192 1.024189 -0.304704
v 0.075875 1.024189 -0.192931
v 0.112192 1.024189 -0.081158
v 0.207272 1.024189 -0.012078
v 0.324797 1.024189 -0.012078
v 0.419877 1.024189 -0.081158
v 0.456195 1.024189 -0.192931
v 0.266035 1.024189 -0.192931
v -0.500000 0.000000 0.448598
v 0.500000 0.000000 0.448598
v -0.500000 1.000000 0.448598
v 0.500000 1.000000 0.448598
v -0.500000 1.000000 -0.449372
v 0.500000 1.000000 -0.449372
v -0.500000 0.000000 -0.449372
v 0.500000 0.000000 -0.449372
v 0.500000 0.330875 0.448598
v -0.500000 0.330875 0.448598
v -0.500000 0.330875 -0.449372
v 0.500000 0.330875 -0.449372
v 0.500000 0.330875 0.477657
v -0.500000 0.330875 0.477657
v 0.500000 1.000000 0.477657
v -0.500000 1.000000 0.477657
vt 0.215387 0.607360
vt 0.215387 0.655155
vt 0.199302 0.670784
vt 0.199302 0.607360
vt 0.231472 0.607360
vt 0.231472 0.639527
vt 0.215387 0.744002
vt 0.215387 0.696206
vt 0.231472 0.711834
vt 0.231472 0.744002
vt 0.199302 0.744002
vt 0.199302 0.680578
vt 0.903816 0.607360
vt 0.919901 0.607360
vt 0.919901 0.670784
vt 0.903816 0.655156
vt 0.887731 0.607360
vt 0.887731 0.639527
vt 0.903816 0.744002
vt 0.887731 0.744002
vt 0.887731 0.711834
vt 0.903816 0.696206
vt 0.919901 0.744002
vt 0.919901 0.680578
vt 0.010277 0.769332
vt 0.010277 0.755276
vt 0.036178 0.755276
vt 0.036178 0.769332
vt 0.062078 0.755276
vt 0.062078 0.769332
vt 0.087979 0.755276
vt 0.087979 0.769332
vt 0.113880 0.755276
vt 0.113880 0.769332
vt 0.139780 0.755276
vt 0.139780 0.769332
vt 0.165681 0.755276
vt 0.165681 0.769332
vt 0.191582 0.755276
vt 0.191582 0.769332
vt 0.217482 0.755276
vt 0.217482 0.769332
vt 0.243383 0.755276
vt 0.243383 0.769332
vt 0.121481 0.877332
vt 0.213069 0.948403
vt 0.156465 0.989529
vt 0.086497 0.989529
vt 0.029893 0.948403
vt 0.008272 0.881861
vt 0.029893 0.815318
vt 0.086497 0.774192
vt 0.156465 0.774192
vt 0.213069 0.815318
vt 0.234690 0.881861
vt 0.510362 0.769332
vt 0.510362 0.755276
vt 0.536263 0.755276
vt 0.536263 0.769332
vt 0.562163 0.755276
vt 0.562163 0.769332
vt 0.588064 0.755276
vt 0.588064 0.769332
vt 0.613965 0.755276
vt 0.613965 0.769332
vt 0.639865 0.755276
vt 0.639865 0.769332
vt 0.665766 0.755276
vt 0.665766 0.769332
vt 0.691667 0.755276
vt 0.691667 0.769332
vt 0.717567 0.755276
vt 0.717567 0.769332
vt 0.743468 0.755276
vt 0.743468 0.769332
vt 0.621566 0.877332
vt 0.713154 0.948403
vt 0.656550 0.989529
vt 0.586583 0.989529
vt 0.529978 0.948403
vt 0.508357 0.881861
vt 0.529978 0.815318
vt 0.586583 0.774192
vt 0.656550 0.774192
vt 0.713154 0.815318
vt 0.734775 0.881861
vt 0.753946 0.769332
vt 0.753946 0.755276
vt 0.779847 0.755276
vt 0.779847 0.769332
vt 0.805747 0.755276
vt 0.805747 0.769332
vt 0.831648 0.755276
vt 0.831648 0.769332
vt 0.857549 0.755276
vt 0.857549 0.769332
vt 0.883449 0.755276
vt 0.883449 0.769332
vt 0.909350 0.755276
vt 0.909350 0.769332
vt 0.935251 0.755276
vt 0.935251 0.769332
vt 0.961151 0.755276
vt 0.961151 0.769332
vt 0.987052 0.755276
vt 0.987052 0.769332
vt 0.865150 0.877332
vt 0.956738 0.948403
vt 0.900133 0.989529
vt 0.830166 0.989529
vt 0.773562 0.948403
vt 0.751941 0.881861
vt 0.773562 0.815318
vt 0.830166 0.774192
vt 0.900133 0.774192
vt 0.956738 0.815318
vt 0.978359 0.881861
vt 0.261687 0.769332
vt 0.261687 0.755276
vt 0.287588 0.755276
vt 0.287588 0.769332
vt 0.313488 0.755276
vt 0.313488 0.769332
vt 0.339389 0.755276
vt 0.339389 0.769332
vt 0.365290 0.755276
vt 0.365290 0.769332
vt 0.391190 0.755276
vt 0.391190 0.769332
vt 0.417091 0.755276
vt 0.417091 0.769332
vt 0.442992 0.755276
vt 0.442992 0.769332
vt 0.468893 0.755276
vt 0.468893 0.769332
vt 0.494793 0.755276
vt 0.494793 0.769332
vt 0.372891 0.877332
vt 0.464479 0.948403
vt 0.407875 0.989529
vt 0.337908 0.989529
vt 0.281303 0.948403
vt 0.259682 0.881861
vt 0.281303 0.815318
vt 0.337908 0.774192
vt 0.407875 0.774192
vt 0.464479 0.815318
vt 0.486100 0.881861
vt 0.879687 0.334902
vt 0.879687 0.008533
vt 0.987675 0.008533
vt 0.987675 0.334902
vt 0.572386 0.017908
vt 0.862890 0.017908
vt 0.862890 0.308413
vt 0.572386 0.308413
vt 0.257650 0.210063
vt 0.560109 0.210063
vt 0.560109 0.310139
vt 0.257650 0.310139
vt 0.257111 0.618585
vt 0.257111 0.320908
vt 0.355604 0.320908
vt 0.355604 0.618585
vt 0.566817 0.629742
vt 0.566817 0.324892
vt 0.667684 0.324892
vt 0.667684 0.629742
vt 0.011002 0.341109
vt 0.011002 0.014739
vt 0.229384 0.014739
vt 0.229384 0.341109
vt 0.871668 0.324892
vt 0.871668 0.629742
vt 0.257650 0.007679
vt 0.560109 0.007679
vt 0.554788 0.320908
vt 0.554788 0.618585
vt 0.235942 0.341109
vt 0.235942 0.014739
vt 0.245426 0.014739
vt 0.245426 0.341109
vt 0.554788 0.627235
vt 0.355604 0.627235
vt 0.572386 0.009467
vt 0.862890 0.009467
vt 0.667684 0.316033
vt 0.871668 0.316033
vn -0.161348 -0.986898 0.000000
vn -0.033431 -0.928649 0.369450
vn -0.080356 -0.000002 0.996766
vn -1.000000 -0.000001 0.000000
vn 1.000000 -0.000000 0.000000
vn 0.058815 0.000001 -0.998269
vn -0.033431 -0.928649 0.369450
vn -0.161348 -0.986898 0.000000
vn -0.161346 0.986898 0.000000
vn -0.033431 0.928652 0.369444
vn 0.058815 0.000001 -0.998269
vn 1.000000 -0.000000 0.000000
vn -1.000000 -0.000001 0.000000
vn -0.080356 -0.000002 0.996766
vn -0.033431 0.928652 0.369444
vn -0.161346 0.986898 0.000000
vn 0.161347 -0.986898 0.000000
vn 1.000000 -0.000000 0.000000
vn 0.080356 -0.000002 0.996766
vn 0.033431 -0.928649 0.369450
vn -1.000000 0.000000 0.000000
vn 0.161347 -0.986898 0.000000
vn 0.033431 -0.928649 0.369450
vn -0.058815 0.000001 -0.998269
vn 0.161346 0.986898 0.000000
vn -1.000000 0.000000 0.000000
vn -0.058815 0.000001 -0.998269
vn 0.033431 0.928652 0.369444
vn 1.000000 -0.000000 0.000000
vn 0.161346 0.986898 0.000000
vn 0.033431 0.928652 0.369444
vn 0.080356 -0.000002 0.996766
vn -0.033431 -0.928649 0.369450
vn 0.033431 -0.928649 0.369450
vn 0.080356 -0.000002 0.996766
vn -0.080356 -0.000002 0.996766
vn 0.058815 0.000001 -0.998269
vn -0.058815 0.000001 -0.998269
vn 0.033431 -0.928649 0.369450
vn -0.033431 -0.928649 0.369450
vn -0.033431 0.928652 0.369444
vn 0.033431 0.928652 0.369444
vn -0.058815 0.000001 -0.998269
vn 0.058815 0.000001 -0.998269
vn -0.080356 -0.000002 0.996766
vn 0.080356 -0.000002 0.996766
vn 0.033431 0.928652 0.369444
vn -0.033431 0.928652 0.369444
vn 0.809017 0.000000 -0.587785
vn 0.809017 0.000000 -0.587785
vn 0.309017 0.000000 -0.951057
vn 0.309017 0.000000 -0.951057
vn 0.309017 0.000000 -0.951057
vn 0.309017 0.000000 -0.951057
vn -0.309017 0.000000 -0.951056
vn -0.309017 0.000000 -0.951056
vn -0.309017 0.000000 -0.951056
vn -0.309017 0.000000 -0.951056
vn -0.809017 0.000000 -0.587785
vn -0.809017 0.000000 -0.587785
vn -0.809017 0.000000 -0.587785
vn -0.809017 0.000000 -0.587785
vn -1.000000 0.000000 0.000000
vn -1.000000 0.000000 0.000000
vn -1.000000 0.000000 0.000000
vn -1.000000 0.000000 0.000000
vn -0.809017 0.000000 0.587785
vn -0.809017 0.000000 0.587785
vn -0.809017 0.000000 0.587785
vn -0.809017 0.000000 0.587785
vn -0.309016 0.000000 0.951057
vn -0.309016 0.000000 0.951057
vn -0.309016 0.000000 0.951057
vn -0.309016 0.000000 0.951057
vn 0.309016 0.000000 0.951057
vn 0.309016 0.000000 0.951057
vn 0.309016 0.000000 0.951057
vn 0.309016 0.000000 0.951057
vn 0.809017 0.000000 0.587785
vn 0.809017 0.000000 0.587785
vn 0.809017 0.000000 0.587785
vn 0.809017 0.000000 0.587785
vn 1.000000 0.000000 0.000001
vn 1.000000 0.000000 0.000001
vn 1.000000 0.000000 0.000001
vn 1.000000 0.000000 0.000001
vn 0.809017 0.000000 -0.587785
vn 0.809017 0.000000 -0.587785
vn 0.000000 1.000000 0.000000
vn 0.000000 1.000000 -0.000001
vn 0.000000 1.000000 0.000000
vn 0.000000 1.000000 0.000000
vn 0.000000 1.000000 0.000000
vn 0.000000 1.000000 0.000000
vn 0.000000 1.000000 0.000000
vn 0.000000 1.000000 0.000000
vn 0.000000 1.000000 0.000000
vn 0.000000 1.000000 0.000000
vn 0.000000 1.000000 0.000000
vn 0.000000 1.000000 0.000000
vn 0.000000 1.000000 0.000000
vn 0.000000 1.000000 0.000000
vn 0.000000 1.000000 0.000000
vn 0.000000 1.000000 0.000000
vn 0.000000 1.000000 0.000000
vn 0.000000 1.000000 0.000000
vn 0.000000 1.000000 0.000000
vn 0.000000 1.000000 0.000000
vn 0.000000 1.000000 0.000000
vn 0.000000 1.000000 0.000000
vn 0.000000 1.000000 0.000000
vn 0.000000 1.000000 0.000000
vn 0.000000 1.000000 0.000000
vn 0.000000 1.000000 0.000000
vn 0.000000 1.000000 -0.000001
vn 0.000000 1.000000 0.000000
vn 0.000000 1.000000 -0.000001
vn 0.000000 1.000000 -0.000001
vn 0.809017 0.000000 -0.587785
vn 0.809017 0.000000 -0.587785
vn 0.309017 0.000000 -0.951057
vn 0.309017 0.000000 -0.951057
vn 0.309017 0.000000 -0.951057
vn 0.309017 0.000000 -0.951057
vn -0.309017 0.000000 -0.951057
vn -0.309017 0.000000 -0.951057
vn -0.309017 0.000000 -0.951057
vn -0.309017 0.000000 -0.951057
vn -0.809017 0.000000 -0.587786
vn -0.809017 0.000000 -0.587786
vn -0.809017 0.000000 -0.587786
vn -0.809017 0.000000 -0.587786
vn -1.000000 0.000000 0.000001
vn -1.000000 0.000000 0.000001
vn -1.000000 0.000000 0.000001
vn -1.000000 0.000000 0.000001
vn -0.809016 0.000000 0.587786
vn -0.809016 0.000000 0.587786
vn -0.809016 0.000000 0.587786
vn -0.809016 0.000000 0.587786
vn -0.309017 0.000000 0.951057
vn -0.309017 0.000000 0.951057
vn -0.309017 0.000000 0.951057
vn -0.309017 0.000000 0.951057
vn 0.309017 0.000000 0.951057
vn 0.309017 0.000000 0.951057
vn 0.309017 0.000000 0.951057
vn 0.309017 0.000000 0.951057
vn 0.809017 0.000000 0.587785
vn 0.809017 0.000000 0.587785
vn 0.809017 0.000000 0.587785
vn 0.809017 0.000000 0.587785
vn 1.000000 0.000000 0.000001
vn 1.000000 0.000000 0.000001
vn 1.000000 0.000000 0.000001
vn 1.000000 0.000000 0.000001
vn 0.809017 0.000000 -0.587785
vn 0.809017 0.000000 -0.587785
vn 0.000000 1.000000 0.000000
vn 0.000000 1.000000 0.000000
vn 0.000000 1.000000 0.000000
vn 0.000000 1.000000 0.000000
vn 0.000000 1.000000 0.000000
vn 0.000000 1.000000 0.000000
vn 0.000000 1.000000 0.000000
vn 0.000000 1.000000 0.000000
vn 0.000000 1.000000 0.000001
vn 0.000000 1.000000 0.000000
vn 0.000000 1.000000 0.000001
vn 0.000000 1.000000 0.000001
vn 0.000000 1.000000 0.000000
vn 0.000000 1.000000 0.000001
vn 0.000000 1.000000 0.000000
vn 0.000000 1.000000 0.000000
vn 0.000000 1.000000 0.000000
vn 0.000000 1.000000 0.000000
vn 0.000000 1.000000 0.000000
vn 0.000000 1.000000 0.000000
vn 0.000000 1.000000 0.000000
vn 0.000000 1.000000 0.000000
vn 0.000000 1.000000 0.000000
vn 0.000000 1.000000 0.000000
vn 0.000000 1.000000 0.000000
vn 0.000000 1.000000 0.000000
vn 0.000000 1.000000 0.000000
vn 0.000000 1.000000 0.000000
vn 0.000000 1.000000 0.000000
vn 0.000000 1.000000 0.000000
vn 0.809018 0.000000 -0.587784
vn 0.809018 0.000000 -0.587784
vn 0.309017 0.000000 -0.951056
vn 0.309017 0.000000 -0.951056
vn 0.309017 0.000000 -0.951056
vn 0.309017 0.000000 -0.951056
vn -0.309017 0.000000 -0.951056
vn -0.309017 0.000000 -0.951056
vn -0.309017 0.000000 -0.951056
vn -0.309017 0.000000 -0.951056
vn -0.809018 0.000000 -0.587784
vn -0.809018 0.000000 -0.587784
vn -0.809018 0.000000 -0.587784
vn -0.809018 0.000000 -0.587784
vn -1.000000 0.000000 0.000001
vn -1.000000 0.000000 0.000001
vn -1.000000 0.000000 0.000001
vn -1.000000 0.000000 0.000001
vn -0.809017 0.000000 0.587786
vn -0.809017 0.000000 0.587786
vn -0.809017 0.000000 0.587786
vn -0.809017 0.000000 0.587786
vn -0.309017 0.000000 0.951057
vn -0.309017 0.000000 0.951057
vn -0.309017 0.000000 0.951057
vn -0.309017 0.000000 0.951057
vn 0.309017 0.000000 0.951057
vn 0.309017 0.000000 0.951057
vn 0.309017 0.000000 0.951057
vn 0.309017 0.000000 0.951057
vn 0.809017 0.000000 0.587786
vn 0.809017 0.000000 0.587786
vn 0.809017 0.000000 0.587786
vn 0.809017 0.000000 0.587786
vn 1.000000 0.000000 0.000001
vn 1.000000 0.000000 0.000001
vn 1.000000 0.000000 0.000001
vn 1.000000 0.000000 0.000001
vn 0.809018 0.000000 -0.587784
vn 0.809018 0.000000 -0.587784
vn 0.000000 1.000000 0.000000
vn 0.000000 1.000000 0.000000
vn 0.000000 1.000000 0.000000
vn 0.000000 1.000000 0.000000
vn 0.000000 1.000000 0.000000
vn 0.000000 1.000000 -0.000001
vn 0.000000 1.000000 0.000000
vn 0.000000 1.000000 -0.000001
vn 0.000000 1.000000 -0.000001
vn 0.000000 1.000000 0.000000
vn 0.000000 1.000000 -0.000001
vn 0.000000 1.000000 0.000000
vn 0.000000 1.000000 0.000000
vn 0.000000 1.000000 0.000000
vn 0.000000 1.000000 0.000000
vn 0.000000 1.000000 0.000000
vn 0.000000 1.000000 0.000000
vn 0.000000 1.000000 0.000000
vn 0.000000 1.000000 0.000000
vn 0.000000 1.000000 0.000000
vn 0.000000 1.000000 0.000000
vn 0.000000 1.000000 0.000000
vn 0.000000 1.000000 0.000000
vn 0.000000 1.000000 -0.000001
vn 0.000000 1.000000 0.000000
vn 0.000000 1.000000 -0.000001
vn 0.000000 1.000000 0.000000
vn 0.000000 1.000000 0.000000
vn 0.000000 1.000000 0.000000
vn 0.000000 1.000000 0.000000
vn 0.809017 0.000000 -0.587785
vn 0.809017 0.000000 -0.587785
vn 0.309016 0.000000 -0.951057
vn 0.309016 0.000000 -0.951057
vn 0.309016 0.000000 -0.951057
vn 0.309016 0.000000 -0.951057
vn -0.309017 0.000000 -0.951057
vn -0.309017 0.000000 -0.951057
vn -0.309017 0.000000 -0.951057
vn -0.309017 0.000000 -0.951057
vn -0.809017 0.000000 -0.587785
vn -0.809017 0.000000 -0.587785
vn -0.809017 0.000000 -0.587785
vn -0.809017 0.000000 -0.587785
vn -1.000000 0.000000 -0.000000
vn -1.000000 0.000000 -0.000000
vn -1.000000 0.000000 -0.000000
vn -1.000000 0.000000 -0.000000
vn -0.809017 0.000000 0.587785
vn -0.809017 0.000000 0.587785
vn -0.809017 0.000000 0.587785
vn -0.809017 0.000000 0.587785
vn -0.309017 0.000000 0.951057
vn -0.309017 0.000000 0.951057
vn -0.309017 0.000000 0.951057
vn -0.309017 0.000000 0.951057
vn 0.309017 0.000000 0.951057
vn 0.309017 0.000000 0.951057
vn 0.309017 0.000000 0.951057
vn 0.309017 0.000000 0.951057
vn 0.809017 0.000000 0.587785
vn 0.809017 0.000000 0.587785
vn 0.809017 0.000000 0.587785
vn 0.809017 0.000000 0.587785
vn 1.000000 0.000000 0.000001
vn 1.000000 0.000000 0.000001
vn 1.000000 0.000000 0.000001
vn 1.000000 0.000000 0.000001
vn 0.809017 0.000000 -0.587785
vn 0.809017 0.000000 -0.587785
vn 0.000000 1.000000 0.000000
vn 0.000000 1.000000 0.000000
vn 0.000000 1.000000 0.000000
vn 0.000000 1.000000 0.000000
vn 0.000000 1.000000 0.000000
vn 0.000000 1.000000 -0.000001
vn 0.000000 1.000000 0.000000
vn 0.000000 1.000000 -0.000001
vn 0.000000 1.000000 0.000000
vn 0.000000 1.000000 0.000000
vn 0.000000 1.000000 0.000000
vn 0.000000 1.000000 0.000001
vn 0.000000 1.000000 0.000000
vn 0.000000 1.000000 0.000001
vn 0.000000 1.000000 0.000000
vn 0.000000 1.000000 0.000000
vn 0.000000 1.000000 0.000000
vn 0.000000 1.000000 0.000000
vn 0.000000 1.000000 0.000000
vn 0.000000 1.000000 0.000000
vn 0.000000 1.000000 0.000000
vn 0.000000 1.000000 0.000000
vn 0.000000 1.000000 0.000000
vn 0.000000 1.000000 0.000000
vn 0.000000 1.000000 0.000000
vn 0.000000 1.000000 0.000000
vn 0.000000 1.000000 0.000000
vn 0.000000 1.000000 0.000000
vn 0.000000 1.000000 0.000000
vn 0.000000 1.000000 0.000000
vn 0.000000 0.000000 1.000000
vn 0.000000 0.000000 1.000000
vn 0.000000 0.000000 1.000000
vn 0.000000 0.000000 1.000000
vn 0.000000 1.000000 0.000000
vn 0.000000 1.000000 0.000000
vn 0.000000 1.000000 0.000000
vn 0.000000 1.000000 0.000000
vn 0.000000 0.000000 -1.000000
vn 0.000000 0.000000 -1.000000
vn 0.000000 0.000000 -1.000000
vn 0.000000 0.000000 -1.000000
vn 1.000000 0.000000 0.000000
vn 1.000000 0.000000 0.000000
vn 1.000000 0.000000 0.000000
vn 1.000000 0.000000 0.000000
vn -1.000000 0.000000 0.000000
vn -1.000000 0.000000 0.000000
vn -1.000000 0.000000 0.000000
vn -1.000000 0.000000 0.000000
vn 0.000000 0.000000 1.000000
vn 0.000000 0.000000 1.000000
vn 0.000000 0.000000 1.000000
vn 0.000000 0.000000 1.000000
vn -1.000000 0.000000 0.000000
vn -1.000000 0.000000 0.000000
vn -1.000000 0.000000 0.000000
vn -1.000000 0.000000 0.000000
vn 0.000000 0.000000 -1.000000
vn 0.000000 0.000000 -1.000000
vn 0.000000 0.000000 -1.000000
vn 0.000000 0.000000 -1.000000
vn 1.000000 0.000000 0.000000
vn 1.000000 0.000000 0.000000
vn 1.000000 0.000000 0.000000
vn 1.000000 0.000000 0.000000
vn 0.000000 -1.000000 0.000000
vn 0.000000 -1.000000 0.000000
vn 0.000000 -1.000000 0.000000
vn 0.000000 -1.000000 0.000000
vn 1.000000 0.000000 0.000000
vn 1.000000 0.000000 0.000000
vn 1.000000 0.000000 0.000000
vn 1.000000 0.000000 0.000000
vn 0.000000 1.000000 0.000000
vn 0.000000 1.000000 0.000000
vn 0.000000 1.000000 0.000000
vn 0.000000 1.000000 0.000000
vn -1.000000 0.000000 0.000000
vn -1.000000 0.000000 0.000000
vn -1.000000 0.000000 0.000000
vn -1.000000 0.000000 0.000000
s off
g Oven:pCylinder9
usemtl Oven:lambert2SG
f 3/1/1 6/2/2 5/3/3 2/4/4
f 4/5/5 7/6/6 6/2/7 3/1/8
f 1/7/9 8/8/10 7/9/11 4/10/12
f 2/11/13 5/12/14 8/8/15 1/7/16
f 11/13/17 10/14/18 13/15/19 14/16/20
f 12/17/21 11/13/22 14/16/23 15/18/24
f 9/19/25 12/20/26 15/21/27 16/22/28
f 10/23/29 9/19/30 16/22/31 13/24/32
f 6/2/33 14/16/34 13/15/35 5/3/36
f 7/6/37 15/18/38 14/16/39 6/2/40
f 8/8/41 16/22/42 15/21/43 7/9/44
f 5/12/45 13/24/46 16/22/47 8/8/48
f 27/25/49 17/26/50 18/27/51 28/28/52
f 28/28/53 18/27/54 19/29/55 29/30/56
f 29/30/57 19/29/58 20/31/59 30/32/60
f 30/32/61 20/31/62 21/33/63 31/34/64
f 31/34/65 21/33/66 22/35/67 32/36/68
f 32/36/69 22/35/70 23/37/71 33/38/72
f 33/38/73 23/37/74 24/39/75 34/40/76
f 34/40/77 24/39/78 25/41/79 35/42/80
f 35/42/81 25/41/82 26/43/83 36/44/84
f 36/44/85 26/43/86 17/26/87 27/25/88
f 37/45/89 27/46/90 28/47/91
f 37/45/92 28/47/93 29/48/94
f 37/45/95 29/48/96 30/49/97
f 37/45/98 30/49/99 31/50/100
f 37/45/101 31/50/102 32/51/103
f 37/45/104 32/51/105 33/52/106
f 37/45/107 33/52/108 34/53/109
f 37/45/110 34/53/111 35/54/112
f 37/45/113 35/54/114 36/55/115
f 37/45/116 36/55/117 27/46/118
f 48/56/119 38/57/120 39/58/121 49/59/122
f 49/59/123 39/58/124 40/60/125 50/61/126
f 50/61/127 40/60/128 41/62/129 51/63/130
f 51/63/131 41/62/132 42/64/133 52/65/134
f 52/65/135 42/64/136 43/66/137 53/67/138
f 53/67/139 43/66/140 44/68/141 54/69/142
f 54/69/143 44/68/144 45/70/145 55/71/146
f 55/71/147 45/70/148 46/72/149 56/73/150
f 56/73/151 46/72/152 47/74/153 57/75/154
f 57/75/155 47/74/156 38/57/157 48/56/158
f 58/76/159 48/77/160 49/78/161
f 58/76/162 49/78/163 50/79/164
f 58/76/165 50/79/166 51/80/167
f 58/76/168 51/80/169 52/81/170
f 58/76/171 52/81/172 53/82/173
f 58/76/174 53/82/175 54/83/176
f 58/76/177 54/83/178 55/84/179
f 58/76/180 55/84/181 56/85/182
f 58/76/183 56/85/184 57/86/185
f 58/76/186 57/86/187 48/77/188
f 69/87/189 59/88/190 60/89/191 70/90/192
f 70/90/193 60/89/194 61/91/195 71/92/196
f 71/92/197 61/91/198 62/93/199 72/94/200
f 72/94/201 62/93/202 63/95/203 73/96/204
f 73/96/205 63/95/206 64/97/207 74/98/208
f 74/98/209 64/97/210 65/99/211 75/100/212
f 75/100/213 65/99/214 66/101/215 76/102/216
f 76/102/217 66/101/218 67/103/219 77/104/220
f 77/104/221 67/103/222 68/105/223 78/106/224
f 78/106/225 68/105/226 59/88/227 69/87/228
f 79/107/229 69/108/230 70/109/231
f 79/107/232 70/109/233 71/110/234
f 79/107/235 71/110/236 72/111/237
f 79/107/238 72/111/239 73/112/240
f 79/107/241 73/112/242 74/113/243
f 79/107/244 74/113/245 75/114/246
f 79/107/247 75/114/248 76/115/249
f 79/107/250 76/115/251 77/116/252
f 79/107/253 77/116/254 78/117/255
f 79/107/256 78/117/257 69/108/258
f 90/118/259 80/119/260 81/120/261 91/121/262
f 91/121/263 81/120/264 82/122/265 92/123/266
f 92/123/267 82/122/268 83/124/269 93/125/270
f 93/125/271 83/124/272 84/126/273 94/127/274
f 94/127/275 84/126/276 85/128/277 95/129/278
f 95/129/279 85/128/280 86/130/281 96/131/282
f 96/131/283 86/130/284 87/132/285 97/133/286
f 97/133/287 87/132/288 88/134/289 98/135/290
f 98/135/291 88/134/292 89/136/293 99/137/294
f 99/137/295 89/136/296 80/119/297 90/118/298
f 100/138/299 90/139/300 91/140/301
f 100/138/302 91/140/303 92/141/304
f 100/138/305 92/141/306 93/142/307
f 100/138/308 93/142/309 94/143/310
f 100/138/311 94/143/312 95/144/313
f 100/138/314 95/144/315 96/145/316
f 100/138/317 96/145/318 97/146/319
f 100/138/320 97/146/321 98/147/322
f 100/138/323 98/147/324 99/148/325
f 100/138/326 99/148/327 90/139/328
f 101/149/329 102/150/330 109/151/331 110/152/332
f 103/153/333 104/154/334 106/155/335 105/156/336
f 111/157/337 112/158/338 108/159/339 107/160/340
f 102/161/341 108/162/342 112/163/343 109/164/344
f 107/165/345 101/166/346 110/167/347 111/168/348
f 114/169/349 113/170/350 115/171/351 116/172/352
f 111/168/353 110/167/354 103/173/355 105/174/356
f 105/175/357 106/176/358 112/158/359 111/157/360
f 109/164/361 112/163/362 106/177/363 104/178/364
f 110/179/365 109/180/366 113/181/367 114/182/368
f 109/164/369 104/178/370 115/183/371 113/184/372
f 104/154/373 103/153/374 116/185/375 115/186/376
f 103/173/377 110/167/378 114/187/379 116/188/380
