# This file uses centimeters as units for non-parametric coordinates.

mtllib SingleBed.mtl
g default
v -0.427959 0.565015 0.995646
v 0.427959 0.565015 0.995646
v -0.427959 0.601865 0.995646
v 0.427959 0.601865 0.995646
v -0.427959 0.601865 -0.571049
v 0.427959 0.601865 -0.571049
v -0.427959 0.565015 -0.571049
v 0.427959 0.565015 -0.571049
v -0.205155 0.551760 -0.527402
v -0.111700 0.536501 -0.527402
v 0.000000 0.528285 -0.527402
v 0.105618 0.537088 -0.527402
v 0.186911 0.549999 -0.527402
v -0.251779 0.579382 -0.505567
v -0.111700 0.579382 -0.505567
v -0.000000 0.558255 -0.505567
v 0.105618 0.580891 -0.505567
v 0.245697 0.580891 -0.505567
v -0.280158 0.603760 -0.505567
v -0.140079 0.603760 -0.505567
v 0.000000 0.603760 -0.505567
v 0.140079 0.603760 -0.505567
v 0.280158 0.603760 -0.505567
v -0.229481 0.640204 -0.533281
v -0.089402 0.649909 -0.533281
v 0.000000 0.658167 -0.533281
v 0.073185 0.650459 -0.533281
v 0.213264 0.641443 -0.533281
v -0.174749 0.654082 -0.533281
v -0.089402 0.657178 -0.533281
v 0.000000 0.665437 -0.533281
v 0.073185 0.657729 -0.533281
v 0.150424 0.654082 -0.533281
v -0.174749 0.676757 -0.611389
v -0.089402 0.679853 -0.611389
v 0.000000 0.688112 -0.611389
v 0.073185 0.680404 -0.611389
v 0.150424 0.676757 -0.611389
v -0.174749 0.676757 -0.717210
v -0.089402 0.679853 -0.717210
v 0.000000 0.688112 -0.717210
v 0.073185 0.680404 -0.717210
v 0.150424 0.676757 -0.717210
v -0.174749 0.676757 -0.823032
v -0.089402 0.679853 -0.823032
v 0.000000 0.688112 -0.823032
v 0.073185 0.680404 -0.823032
v 0.150424 0.676757 -0.823032
v -0.174749 0.660801 -0.894422
v -0.089402 0.663897 -0.894422
v 0.000000 0.672155 -0.894422
v 0.073185 0.664447 -0.894422
v 0.150424 0.660801 -0.894422
v -0.229481 0.646922 -0.894422
v -0.089402 0.656627 -0.894422
v 0.000000 0.664886 -0.894422
v 0.073185 0.657178 -0.894422
v 0.213264 0.648161 -0.894422
v -0.280158 0.603760 -0.928854
v -0.140079 0.603760 -0.928854
v 0.000000 0.603760 -0.928854
v 0.140079 0.603760 -0.928854
v 0.280158 0.603760 -0.928854
v -0.251779 0.579382 -0.928854
v -0.111700 0.579382 -0.928854
v -0.000000 0.569173 -0.886023
v 0.105618 0.580891 -0.928854
v 0.245697 0.580891 -0.928854
v -0.205155 0.553439 -0.886023
v -0.111700 0.538181 -0.886023
v 0.000000 0.529965 -0.886023
v 0.105618 0.538768 -0.886023
v 0.186911 0.551679 -0.886023
v -0.205155 0.542522 -0.823032
v -0.111700 0.527264 -0.823032
v 0.000000 0.519047 -0.823032
v 0.105618 0.527850 -0.823032
v 0.186911 0.540761 -0.823032
v -0.205155 0.542522 -0.717210
v -0.111700 0.527264 -0.717210
v 0.000000 0.519047 -0.717210
v 0.105618 0.527850 -0.717210
v 0.186911 0.540761 -0.717210
v -0.205155 0.542522 -0.611389
v -0.111700 0.527264 -0.611389
v 0.000000 0.519047 -0.611389
v 0.105618 0.527850 -0.611389
v 0.186911 0.540761 -0.611389
v 0.245697 0.580891 -0.823032
v 0.245697 0.580891 -0.717210
v 0.245697 0.580891 -0.611389
v 0.280158 0.603760 -0.823032
v 0.280158 0.603760 -0.717210
v 0.280158 0.603760 -0.611389
v 0.213264 0.664118 -0.823032
v 0.213264 0.664118 -0.717210
v 0.213264 0.664118 -0.611389
v -0.251779 0.579382 -0.823032
v -0.251779 0.579382 -0.717210
v -0.251779 0.579382 -0.611389
v -0.280158 0.603760 -0.823032
v -0.280158 0.603760 -0.717210
v -0.280158 0.603760 -0.611389
v -0.229481 0.662879 -0.823032
v -0.229481 0.662879 -0.717210
v -0.229481 0.662879 -0.611389
v 0.353009 0.003296 -0.912601
v 0.438237 0.003296 -0.912601
v 0.353009 0.514176 -0.912601
v 0.438237 0.514176 -0.912601
v 0.353009 0.514176 -0.997828
v 0.438237 0.514176 -0.997828
v 0.353009 0.003296 -0.997828
v 0.438237 0.003296 -0.997828
v 0.351031 0.003296 0.988216
v 0.436259 0.003296 0.988216
v 0.351031 0.514176 0.988216
v 0.436259 0.514176 0.988216
v 0.351031 0.514176 0.902988
v 0.436259 0.514176 0.902988
v 0.351031 0.003296 0.902988
v 0.436259 0.003296 0.902988
v -0.440765 0.473072 1.002173
v 0.440765 0.473072 1.002173
v -0.440765 0.569906 1.002173
v 0.440765 0.569906 1.002173
v -0.440765 0.569906 -1.002173
v 0.440765 0.569906 -1.002173
v -0.440765 0.473072 -1.002173
v 0.440765 0.473072 -1.002173
v -0.432746 0.003296 0.988216
v -0.347518 0.003296 0.988216
v -0.432746 0.514176 0.988216
v -0.347518 0.514176 0.988216
v -0.432746 0.514176 0.902988
v -0.347518 0.514176 0.902988
v -0.432746 0.003296 0.902988
v -0.347518 0.003296 0.902988
v -0.440169 0.003296 -0.912601
v -0.354941 0.003296 -0.912601
v -0.440169 0.514176 -0.912601
v -0.354941 0.514176 -0.912601
v -0.440169 0.514176 -0.997828
v -0.354941 0.514176 -0.997828
v -0.440169 0.003296 -0.997828
v -0.354941 0.003296 -0.997828
vt 0.375000 0.000000
vt 0.625000 0.000000
vt 0.375000 0.250000
vt 0.625000 0.250000
vt 0.375000 0.500000
vt 0.625000 0.500000
vt 0.375000 0.750000
vt 0.625000 0.750000
vt 0.375000 1.000000
vt 0.625000 1.000000
vt 0.875000 0.000000
vt 0.875000 0.250000
vt 0.125000 0.000000
vt 0.125000 0.250000
vt 0.375000 0.000000
vt 0.437500 0.000000
vt 0.437500 0.062500
vt 0.375000 0.062500
vt 0.500000 0.000000
vt 0.500000 0.062500
vt 0.562500 0.000000
vt 0.562500 0.062500
vt 0.625000 0.000000
vt 0.625000 0.062500
vt 0.437500 0.125000
vt 0.375000 0.125000
vt 0.500000 0.125000
vt 0.562500 0.125000
vt 0.625000 0.125000
vt 0.437500 0.187500
vt 0.375000 0.187500
vt 0.500000 0.187500
vt 0.562500 0.187500
vt 0.625000 0.187500
vt 0.437500 0.250000
vt 0.375000 0.250000
vt 0.500000 0.250000
vt 0.562500 0.250000
vt 0.625000 0.250000
vt 0.437500 0.312500
vt 0.375000 0.312500
vt 0.500000 0.312500
vt 0.562500 0.312500
vt 0.625000 0.312500
vt 0.437500 0.375000
vt 0.375000 0.375000
vt 0.500000 0.375000
vt 0.562500 0.375000
vt 0.625000 0.375000
vt 0.437500 0.437500
vt 0.375000 0.437500
vt 0.500000 0.437500
vt 0.562500 0.437500
vt 0.625000 0.437500
vt 0.437500 0.500000
vt 0.375000 0.500000
vt 0.500000 0.500000
vt 0.562500 0.500000
vt 0.625000 0.500000
vt 0.437500 0.562500
vt 0.375000 0.562500
vt 0.500000 0.562500
vt 0.562500 0.562500
vt 0.625000 0.562500
vt 0.437500 0.625000
vt 0.375000 0.625000
vt 0.500000 0.625000
vt 0.562500 0.625000
vt 0.625000 0.625000
vt 0.437500 0.687500
vt 0.375000 0.687500
vt 0.500000 0.687500
vt 0.562500 0.687500
vt 0.625000 0.687500
vt 0.437500 0.750000
vt 0.375000 0.750000
vt 0.500000 0.750000
vt 0.562500 0.750000
vt 0.625000 0.750000
vt 0.437500 0.812500
vt 0.375000 0.812500
vt 0.500000 0.812500
vt 0.562500 0.812500
vt 0.625000 0.812500
vt 0.437500 0.875000
vt 0.375000 0.875000
vt 0.500000 0.875000
vt 0.562500 0.875000
vt 0.625000 0.875000
vt 0.437500 0.937500
vt 0.375000 0.937500
vt 0.500000 0.937500
vt 0.562500 0.937500
vt 0.625000 0.937500
vt 0.437500 1.000000
vt 0.375000 1.000000
vt 0.500000 1.000000
vt 0.562500 1.000000
vt 0.625000 1.000000
vt 0.812500 0.000000
vt 0.875000 0.000000
vt 0.875000 0.062500
vt 0.812500 0.062500
vt 0.750000 0.000000
vt 0.750000 0.062500
vt 0.687500 0.000000
vt 0.687500 0.062500
vt 0.875000 0.125000
vt 0.812500 0.125000
vt 0.750000 0.125000
vt 0.687500 0.125000
vt 0.875000 0.187500
vt 0.812500 0.187500
vt 0.750000 0.187500
vt 0.687500 0.187500
vt 0.875000 0.250000
vt 0.812500 0.250000
vt 0.750000 0.250000
vt 0.687500 0.250000
vt 0.125000 0.000000
vt 0.187500 0.000000
vt 0.187500 0.062500
vt 0.125000 0.062500
vt 0.250000 0.000000
vt 0.250000 0.062500
vt 0.312500 0.000000
vt 0.312500 0.062500
vt 0.187500 0.125000
vt 0.125000 0.125000
vt 0.250000 0.125000
vt 0.312500 0.125000
vt 0.187500 0.187500
vt 0.125000 0.187500
vt 0.250000 0.187500
vt 0.312500 0.187500
vt 0.187500 0.250000
vt 0.125000 0.250000
vt 0.250000 0.250000
vt 0.312500 0.250000
vt 0.375000 0.000000
vt 0.625000 0.000000
vt 0.625000 0.250000
vt 0.375000 0.250000
vt 0.625000 0.500000
vt 0.375000 0.500000
vt 0.625000 0.750000
vt 0.375000 0.750000
vt 0.625000 1.000000
vt 0.375000 1.000000
vt 0.875000 0.000000
vt 0.875000 0.250000
vt 0.125000 0.000000
vt 0.125000 0.250000
vt 0.375000 0.000000
vt 0.625000 0.000000
vt 0.625000 0.250000
vt 0.375000 0.250000
vt 0.625000 0.500000
vt 0.375000 0.500000
vt 0.625000 0.750000
vt 0.375000 0.750000
vt 0.625000 1.000000
vt 0.375000 1.000000
vt 0.875000 0.000000
vt 0.875000 0.250000
vt 0.125000 0.000000
vt 0.125000 0.250000
vt 0.375000 0.000000
vt 0.625000 0.000000
vt 0.625000 0.250000
vt 0.375000 0.250000
vt 0.625000 0.500000
vt 0.375000 0.500000
vt 0.625000 0.750000
vt 0.375000 0.750000
vt 0.625000 1.000000
vt 0.375000 1.000000
vt 0.875000 0.000000
vt 0.875000 0.250000
vt 0.125000 0.000000
vt 0.125000 0.250000
vt 0.375000 0.000000
vt 0.625000 0.000000
vt 0.625000 0.250000
vt 0.375000 0.250000
vt 0.625000 0.500000
vt 0.375000 0.500000
vt 0.625000 0.750000
vt 0.375000 0.750000
vt 0.625000 1.000000
vt 0.375000 1.000000
vt 0.875000 0.000000
vt 0.875000 0.250000
vt 0.125000 0.000000
vt 0.125000 0.250000
vt 0.375000 0.000000
vt 0.625000 0.000000
vt 0.625000 0.250000
vt 0.375000 0.250000
vt 0.625000 0.500000
vt 0.375000 0.500000
vt 0.625000 0.750000
vt 0.375000 0.750000
vt 0.625000 1.000000
vt 0.375000 1.000000
vt 0.875000 0.000000
vt 0.875000 0.250000
vt 0.125000 0.000000
vt 0.125000 0.250000
vn 0.000000 0.000000 1.000000
vn 0.000000 0.000000 1.000000
vn 0.000000 0.000000 1.000000
vn 0.000000 0.000000 1.000000
vn 0.000000 1.000000 0.000000
vn 0.000000 1.000000 0.000000
vn 0.000000 1.000000 0.000000
vn 0.000000 1.000000 0.000000
vn 0.000000 0.000000 -1.000000
vn 0.000000 0.000000 -1.000000
vn 0.000000 0.000000 -1.000000
vn 0.000000 0.000000 -1.000000
vn 0.000000 -1.000000 0.000000
vn 0.000000 -1.000000 0.000000
vn 0.000000 -1.000000 0.000000
vn 0.000000 -1.000000 0.000000
vn 1.000000 0.000000 0.000000
vn 1.000000 0.000000 0.000000
vn 1.000000 0.000000 0.000000
vn 1.000000 0.000000 0.000000
vn -1.000000 0.000000 0.000000
vn -1.000000 0.000000 0.000000
vn -1.000000 0.000000 0.000000
vn -1.000000 0.000000 0.000000
vn -0.035484 -0.543101 0.838917
vn -0.052637 -0.527062 0.848195
vn -0.026829 -0.280144 0.959583
vn -0.009816 -0.150236 0.988601
vn 0.002281 -0.511838 0.859079
vn 0.001743 -0.310880 0.950448
vn 0.054409 -0.514806 0.855578
vn 0.027264 -0.273645 0.961444
vn 0.030458 -0.522243 0.852253
vn 0.007651 -0.131193 0.991327
vn -0.013067 0.373967 0.927350
vn -0.013931 0.402148 0.915469
vn -0.000379 0.304666 0.952459
vn 0.012580 0.382668 0.923800
vn 0.013134 0.408074 0.912854
vn -0.016374 0.459759 0.887893
vn -0.019702 0.568733 0.822286
vn -0.000619 0.447635 0.894216
vn 0.016237 0.461583 0.886948
vn 0.018214 0.565915 0.824263
vn -0.000000 0.000000 1.000000
vn -0.000000 0.000000 1.000000
vn -0.000000 0.000000 1.000000
vn -0.000000 0.000000 1.000000
vn -0.000000 0.000000 1.000000
vn -0.034814 0.959769 0.278623
vn -0.061971 0.958506 0.278257
vn -0.064483 0.990377 0.122459
vn -0.035976 0.991789 0.122720
vn -0.003146 0.960347 0.278791
vn -0.003407 0.992629 0.121141
vn 0.071924 0.957864 0.278070
vn 0.074865 0.989661 0.122338
vn 0.045289 0.959366 0.278506
vn 0.046797 0.991328 0.122798
vn -0.064838 0.997896 0.000000
vn -0.036250 0.999343 0.000000
vn -0.003385 0.999994 0.000000
vn 0.075267 0.997163 0.000000
vn 0.047154 0.998888 0.000000
vn -0.064676 0.993866 -0.089707
vn -0.036103 0.995297 -0.089887
vn -0.003406 0.996030 -0.088953
vn 0.075086 0.993141 -0.089622
vn 0.046963 0.994841 -0.089927
vn -0.063040 0.973979 -0.217696
vn -0.035379 0.975309 -0.217993
vn -0.003220 0.975915 -0.218128
vn 0.073167 0.973304 -0.217545
vn 0.046021 0.974886 -0.217899
vn 0.000000 0.000000 -1.000000
vn 0.000000 0.000000 -1.000000
vn -0.017720 0.498081 -0.866950
vn -0.020522 0.592423 -0.805366
vn 0.000000 0.000000 -1.000000
vn -0.000669 0.485076 -0.874472
vn -0.000000 0.000000 -1.000000
vn 0.017524 0.499794 -0.865967
vn -0.000001 0.000000 -1.000000
vn 0.018992 0.590091 -0.807114
vn -0.003923 0.376325 -0.926480
vn -0.015804 0.456227 -0.889723
vn 0.001159 0.150640 -0.988588
vn 0.005567 0.392647 -0.919673
vn 0.014897 0.462844 -0.886315
vn 0.056155 -0.589700 -0.805668
vn -0.022176 -0.339408 -0.940378
vn 0.002308 -0.500091 -0.865970
vn -0.059484 -0.590610 -0.804762
vn 0.017482 -0.299743 -0.953860
vn 0.035356 -0.658960 -0.751346
vn -0.052241 -0.799573 -0.598293
vn 0.001695 -0.468100 -0.883674
vn -0.040060 -0.646983 -0.761452
vn 0.045655 -0.782820 -0.620571
vn -0.158827 -0.972803 -0.168605
vn -0.112577 -0.979047 -0.169687
vn -0.113240 -0.991506 -0.063977
vn -0.160799 -0.984885 -0.064390
vn 0.002701 -0.985307 -0.170772
vn 0.002680 -0.997934 -0.064194
vn 0.114188 -0.978866 -0.169655
vn 0.114981 -0.991303 -0.064017
vn 0.154604 -0.973464 -0.168719
vn 0.156526 -0.985571 -0.064416
vn -0.113680 -0.993517 0.000000
vn -0.161133 -0.986933 0.000000
vn 0.002700 -0.999996 0.000000
vn 0.115395 -0.993320 0.000000
vn 0.156852 -0.987622 0.000000
vn -0.113390 -0.992379 0.048236
vn -0.160945 -0.985782 0.048276
vn 0.002686 -0.998821 0.048465
vn 0.115126 -0.992178 0.048249
vn 0.156669 -0.986469 0.048302
vn -0.113360 -0.987598 0.108629
vn -0.160192 -0.981168 0.107922
vn 0.002710 -0.994001 0.109333
vn 0.115014 -0.987409 0.108608
vn 0.155935 -0.981846 0.107996
vn 0.534583 -0.844792 -0.023391
vn 0.491942 -0.868813 -0.056188
vn 0.525906 -0.850163 -0.025420
vn 0.541303 -0.840701 -0.014601
vn 0.563801 -0.825911 0.000000
vn 0.559823 -0.828612 0.000000
vn 0.540205 -0.841320 0.018951
vn 0.544819 -0.838469 0.011924
vn 0.510905 -0.858621 0.041789
vn 0.530425 -0.847429 0.022670
vn 0.989301 0.129075 -0.067997
vn 0.939463 0.341165 -0.031873
vn 0.931748 0.363104 0.000000
vn 0.933466 0.355776 0.045445
vn 0.976176 0.192925 0.099299
vn 0.485643 0.865998 -0.119157
vn 0.472411 0.879587 -0.056164
vn 0.490373 0.871513 0.000000
vn 0.459368 0.884792 0.078252
vn 0.454583 0.875782 0.162360
vn 0.192625 0.957643 -0.214045
vn 0.196456 0.976691 -0.086488
vn 0.197195 0.980364 0.000000
vn 0.195827 0.973566 0.117567
vn 0.189664 0.942920 0.273732
vn -0.540523 -0.839575 -0.054297
vn -0.588402 -0.808261 -0.022295
vn -0.614674 -0.788666 -0.013493
vn -0.608478 -0.793268 -0.021922
vn -0.620186 -0.784455 0.000000
vn -0.632448 -0.774602 0.000000
vn -0.594527 -0.803872 0.018068
vn -0.617693 -0.786342 0.011021
vn -0.561927 -0.826209 0.040211
vn -0.607342 -0.794179 0.020369
vn -0.971350 0.236350 -0.024841
vn -0.998521 0.021706 -0.049842
vn -0.966142 0.258011 0.000000
vn -0.968000 0.248423 0.035532
vn -0.994603 0.073010 0.073719
vn -0.549993 0.833366 -0.054862
vn -0.572600 0.811877 -0.113948
vn -0.569325 0.822112 0.000000
vn -0.535817 0.840844 0.076695
vn -0.539655 0.827285 0.156119
vn -0.244905 0.965799 -0.085164
vn -0.240225 0.947342 -0.211742
vn -0.245799 0.969321 0.000000
vn -0.244149 0.962816 0.115658
vn -0.236609 0.933082 0.270876
vn 0.000000 0.000000 1.000000
vn 0.000000 0.000000 1.000000
vn 0.000000 0.000000 1.000000
vn 0.000000 0.000000 1.000000
vn 0.000000 1.000000 0.000000
vn 0.000000 1.000000 0.000000
vn 0.000000 1.000000 0.000000
vn 0.000000 1.000000 0.000000
vn 0.000000 0.000000 -1.000000
vn 0.000000 0.000000 -1.000000
vn 0.000000 0.000000 -1.000000
vn 0.000000 0.000000 -1.000000
vn 0.000000 -1.000000 0.000000
vn 0.000000 -1.000000 0.000000
vn 0.000000 -1.000000 0.000000
vn 0.000000 -1.000000 0.000000
vn 1.000000 0.000000 0.000000
vn 1.000000 0.000000 0.000000
vn 1.000000 0.000000 0.000000
vn 1.000000 0.000000 0.000000
vn -1.000000 0.000000 0.000000
vn -1.000000 0.000000 0.000000
vn -1.000000 0.000000 0.000000
vn -1.000000 0.000000 0.000000
vn 0.000000 0.000000 1.000000
vn 0.000000 0.000000 1.000000
vn 0.000000 0.000000 1.000000
vn 0.000000 0.000000 1.000000
vn 0.000000 1.000000 0.000000
vn 0.000000 1.000000 0.000000
vn 0.000000 1.000000 0.000000
vn 0.000000 1.000000 0.000000
vn 0.000000 0.000000 -1.000000
vn 0.000000 0.000000 -1.000000
vn 0.000000 0.000000 -1.000000
vn 0.000000 0.000000 -1.000000
vn 0.000000 -1.000000 0.000000
vn 0.000000 -1.000000 0.000000
vn 0.000000 -1.000000 0.000000
vn 0.000000 -1.000000 0.000000
vn 1.000000 0.000000 0.000000
vn 1.000000 0.000000 0.000000
vn 1.000000 0.000000 0.000000
vn 1.000000 0.000000 0.000000
vn -1.000000 0.000000 0.000000
vn -1.000000 0.000000 0.000000
vn -1.000000 0.000000 0.000000
vn -1.000000 0.000000 0.000000
vn 0.000000 0.000000 1.000000
vn 0.000000 0.000000 1.000000
vn 0.000000 0.000000 1.000000
vn 0.000000 0.000000 1.000000
vn 0.000000 1.000000 0.000000
vn 0.000000 1.000000 0.000000
vn 0.000000 1.000000 0.000000
vn 0.000000 1.000000 0.000000
vn 0.000000 0.000000 -1.000000
vn 0.000000 0.000000 -1.000000
vn 0.000000 0.000000 -1.000000
vn 0.000000 0.000000 -1.000000
vn 0.000000 -1.000000 0.000000
vn 0.000000 -1.000000 0.000000
vn 0.000000 -1.000000 0.000000
vn 0.000000 -1.000000 0.000000
vn 1.000000 0.000000 0.000000
vn 1.000000 0.000000 0.000000
vn 1.000000 0.000000 0.000000
vn 1.000000 0.000000 0.000000
vn -1.000000 0.000000 0.000000
vn -1.000000 0.000000 0.000000
vn -1.000000 0.000000 0.000000
vn -1.000000 0.000000 0.000000
vn 0.000000 0.000000 1.000000
vn 0.000000 0.000000 1.000000
vn 0.000000 0.000000 1.000000
vn 0.000000 0.000000 1.000000
vn 0.000000 1.000000 0.000000
vn 0.000000 1.000000 0.000000
vn 0.000000 1.000000 0.000000
vn 0.000000 1.000000 0.000000
vn 0.000000 0.000000 -1.000000
vn 0.000000 0.000000 -1.000000
vn 0.000000 0.000000 -1.000000
vn 0.000000 0.000000 -1.000000
vn 0.000000 -1.000000 0.000000
vn 0.000000 -1.000000 0.000000
vn 0.000000 -1.000000 0.000000
vn 0.000000 -1.000000 0.000000
vn 1.000000 0.000000 0.000000
vn 1.000000 0.000000 0.000000
vn 1.000000 0.000000 0.000000
vn 1.000000 0.000000 0.000000
vn -1.000000 0.000000 0.000000
vn -1.000000 0.000000 0.000000
vn -1.000000 0.000000 0.000000
vn -1.000000 0.000000 0.000000
vn 0.000000 0.000000 1.000000
vn 0.000000 0.000000 1.000000
vn 0.000000 0.000000 1.000000
vn 0.000000 0.000000 1.000000
vn 0.000000 1.000000 0.000000
vn 0.000000 1.000000 0.000000
vn 0.000000 1.000000 0.000000
vn 0.000000 1.000000 0.000000
vn 0.000000 0.000000 -1.000000
vn 0.000000 0.000000 -1.000000
vn 0.000000 0.000000 -1.000000
vn 0.000000 0.000000 -1.000000
vn 0.000000 -1.000000 0.000000
vn 0.000000 -1.000000 0.000000
vn 0.000000 -1.000000 0.000000
vn 0.000000 -1.000000 0.000000
vn 1.000000 0.000000 0.000000
vn 1.000000 0.000000 0.000000
vn 1.000000 0.000000 0.000000
vn 1.000000 0.000000 0.000000
vn -1.000000 0.000000 0.000000
vn -1.000000 0.000000 0.000000
vn -1.000000 0.000000 0.000000
vn -1.000000 0.000000 0.000000
s off
g pCube8
usemtl initialShadingGroup
f 1/1/1 2/2/2 4/4/3 3/3/4
f 3/3/5 4/4/6 6/6/7 5/5/8
f 5/5/9 6/6/10 8/8/11 7/7/12
f 7/7/13 8/8/14 2/10/15 1/9/16
f 2/2/17 8/11/18 6/12/19 4/4/20
f 7/13/21 1/1/22 3/3/23 5/14/24
s 1
f 9/15/25 10/16/26 15/17/27 14/18/28
f 10/16/26 11/19/29 16/20/30 15/17/27
f 11/19/29 12/21/31 17/22/32 16/20/30
f 12/21/31 13/23/33 18/24/34 17/22/32
f 14/18/28 15/17/27 20/25/35 19/26/36
f 15/17/27 16/20/30 21/27/37 20/25/35
f 16/20/30 17/22/32 22/28/38 21/27/37
f 17/22/32 18/24/34 23/29/39 22/28/38
f 19/26/36 20/25/35 25/30/40 24/31/41
f 20/25/35 21/27/37 26/32/42 25/30/40
f 21/27/37 22/28/38 27/33/43 26/32/42
f 22/28/38 23/29/39 28/34/44 27/33/43
f 24/31/41 25/30/40 30/35/45 29/36/46
f 25/30/40 26/32/42 31/37/47 30/35/45
f 26/32/42 27/33/43 32/38/48 31/37/47
f 27/33/43 28/34/44 33/39/49 32/38/48
s 2
f 29/36/50 30/35/51 35/40/52 34/41/53
f 30/35/51 31/37/54 36/42/55 35/40/52
f 31/37/54 32/38/56 37/43/57 36/42/55
f 32/38/56 33/39/58 38/44/59 37/43/57
f 34/41/53 35/40/52 40/45/60 39/46/61
f 35/40/52 36/42/55 41/47/62 40/45/60
f 36/42/55 37/43/57 42/48/63 41/47/62
f 37/43/57 38/44/59 43/49/64 42/48/63
f 39/46/61 40/45/60 45/50/65 44/51/66
f 40/45/60 41/47/62 46/52/67 45/50/65
f 41/47/62 42/48/63 47/53/68 46/52/67
f 42/48/63 43/49/64 48/54/69 47/53/68
f 44/51/66 45/50/65 50/55/70 49/56/71
f 45/50/65 46/52/67 51/57/72 50/55/70
f 46/52/67 47/53/68 52/58/73 51/57/72
f 47/53/68 48/54/69 53/59/74 52/58/73
s 3
f 49/56/75 50/55/76 55/60/77 54/61/78
f 50/55/76 51/57/79 56/62/80 55/60/77
f 51/57/79 52/58/81 57/63/82 56/62/80
f 52/58/81 53/59/83 58/64/84 57/63/82
f 54/61/78 55/60/77 60/65/85 59/66/86
f 55/60/77 56/62/80 61/67/87 60/65/85
f 56/62/80 57/63/82 62/68/88 61/67/87
f 57/63/82 58/64/84 63/69/89 62/68/88
f 59/66/86 60/65/85 65/70/90 64/71/91
f 60/65/85 61/67/87 66/72/92 65/70/90
f 61/67/87 62/68/88 67/73/93 66/72/92
f 62/68/88 63/69/89 68/74/94 67/73/93
f 64/71/91 65/70/90 70/75/95 69/76/96
f 65/70/90 66/72/92 71/77/97 70/75/95
f 66/72/92 67/73/93 72/78/98 71/77/97
f 67/73/93 68/74/94 73/79/99 72/78/98
s 4
f 69/76/100 70/75/101 75/80/102 74/81/103
f 70/75/101 71/77/104 76/82/105 75/80/102
f 71/77/104 72/78/106 77/83/107 76/82/105
f 72/78/106 73/79/108 78/84/109 77/83/107
f 74/81/103 75/80/102 80/85/110 79/86/111
f 75/80/102 76/82/105 81/87/112 80/85/110
f 76/82/105 77/83/107 82/88/113 81/87/112
f 77/83/107 78/84/109 83/89/114 82/88/113
f 79/86/111 80/85/110 85/90/115 84/91/116
f 80/85/110 81/87/112 86/92/117 85/90/115
f 81/87/112 82/88/113 87/93/118 86/92/117
f 82/88/113 83/89/114 88/94/119 87/93/118
f 84/91/116 85/90/115 10/95/120 9/96/121
f 85/90/115 86/92/117 11/97/122 10/95/120
f 86/92/117 87/93/118 12/98/123 11/97/122
f 87/93/118 88/94/119 13/99/124 12/98/123
s 5
f 78/100/125 73/101/126 68/102/127 89/103/128
f 83/104/129 78/100/125 89/103/128 90/105/130
f 88/106/131 83/104/129 90/105/130 91/107/132
f 13/23/133 88/106/131 91/107/132 18/24/134
f 89/103/128 68/102/127 63/108/135 92/109/136
f 90/105/130 89/103/128 92/109/136 93/110/137
f 91/107/132 90/105/130 93/110/137 94/111/138
f 18/24/134 91/107/132 94/111/138 23/29/139
f 92/109/136 63/108/135 58/112/140 95/113/141
f 93/110/137 92/109/136 95/113/141 96/114/142
f 94/111/138 93/110/137 96/114/142 97/115/143
f 23/29/139 94/111/138 97/115/143 28/34/144
f 95/113/141 58/112/140 53/116/145 48/117/146
f 96/114/142 95/113/141 48/117/146 43/118/147
f 97/115/143 96/114/142 43/118/147 38/119/148
f 28/34/144 97/115/143 38/119/148 33/39/149
s 6
f 69/120/150 74/121/151 98/122/152 64/123/153
f 74/121/151 79/124/154 99/125/155 98/122/152
f 79/124/154 84/126/156 100/127/157 99/125/155
f 84/126/156 9/15/158 14/18/159 100/127/157
f 64/123/153 98/122/152 101/128/160 59/129/161
f 98/122/152 99/125/155 102/130/162 101/128/160
f 99/125/155 100/127/157 103/131/163 102/130/162
f 100/127/157 14/18/159 19/26/164 103/131/163
f 59/129/161 101/128/160 104/132/165 54/133/166
f 101/128/160 102/130/162 105/134/167 104/132/165
f 102/130/162 103/131/163 106/135/168 105/134/167
f 103/131/163 19/26/164 24/31/169 106/135/168
f 54/133/166 104/132/165 44/136/170 49/137/171
f 104/132/165 105/134/167 39/138/172 44/136/170
f 105/134/167 106/135/168 34/139/173 39/138/172
f 106/135/168 24/31/169 29/36/174 34/139/173
s off
f 107/140/175 108/141/176 110/142/177 109/143/178
f 109/143/179 110/142/180 112/144/181 111/145/182
f 111/145/183 112/144/184 114/146/185 113/147/186
f 113/147/187 114/146/188 108/148/189 107/149/190
f 108/141/191 114/150/192 112/151/193 110/142/194
f 113/152/195 107/140/196 109/143/197 111/153/198
f 115/154/199 116/155/200 118/156/201 117/157/202
f 117/157/203 118/156/204 120/158/205 119/159/206
f 119/159/207 120/158/208 122/160/209 121/161/210
f 121/161/211 122/160/212 116/162/213 115/163/214
f 116/155/215 122/164/216 120/165/217 118/156/218
f 121/166/219 115/154/220 117/157/221 119/167/222
f 123/168/223 124/169/224 126/170/225 125/171/226
f 125/171/227 126/170/228 128/172/229 127/173/230
f 127/173/231 128/172/232 130/174/233 129/175/234
f 129/175/235 130/174/236 124/176/237 123/177/238
f 124/169/239 130/178/240 128/179/241 126/170/242
f 129/180/243 123/168/244 125/171/245 127/181/246
f 131/182/247 132/183/248 134/184/249 133/185/250
f 133/185/251 134/184/252 136/186/253 135/187/254
f 135/187/255 136/186/256 138/188/257 137/189/258
f 137/189/259 138/188/260 132/190/261 131/191/262
f 132/183/263 138/192/264 136/193/265 134/184/266
f 137/194/267 131/182/268 133/185/269 135/195/270
f 139/196/271 140/197/272 142/198/273 141/199/274
f 141/199/275 142/198/276 144/200/277 143/201/278
f 143/201/279 144/200/280 146/202/281 145/203/282
f 145/203/283 146/202/284 140/204/285 139/205/286
f 140/197/287 146/206/288 144/207/289 142/198/290
f 145/208/291 139/196/292 141/199/293 143/209/294
