# This file uses centimeters as units for non-parametric coordinates.

v -0.605185 0.735154 0.905140
v 0.605185 0.735154 0.905140
v -0.605185 0.831949 0.905140
v 0.605185 0.831949 0.905140
v -0.605185 0.831949 -0.905140
v 0.605185 0.831949 -0.905140
v -0.605185 0.735154 -0.905140
v 0.605185 0.735154 -0.905140
v 0.029434 0.000000 -0.090589
v -0.077059 0.000000 -0.055987
v -0.077059 0.000000 0.055987
v 0.029434 0.000000 0.090589
v 0.095251 0.000000 0.000000
v 0.029434 0.770469 -0.090589
v -0.077059 0.770469 -0.055987
v -0.077059 0.770469 0.055987
v 0.029434 0.770469 0.090589
v 0.095251 0.770469 0.000000
v -0.000000 0.000000 0.000000
vt 0.809757 0.596741
vt 0.809757 0.001992
vt 0.841559 0.001992
vt 0.841559 0.596741
vt 0.848559 0.596741
vt 0.848559 0.001992
vt 0.880360 0.001992
vt 0.880360 0.596741
vt 0.729492 0.600353
vt 0.766280 0.600353
vt 0.766280 0.853483
vt 0.729492 0.853483
vt 0.001803 0.001992
vt 0.399458 0.001992
vt 0.399458 0.596741
vt 0.001803 0.596741
vt 0.405868 0.001992
vt 0.803523 0.001992
vt 0.803523 0.596741
vt 0.405868 0.596741
vt 0.605166 0.611721
vt 0.640154 0.600353
vt 0.630483 0.630115
vt 0.661777 0.630115
vt 0.605166 0.648509
vt 0.640154 0.659877
vt 0.871348 0.998008
vt 0.871348 0.600353
vt 0.903149 0.600353
vt 0.903149 0.998008
vt 0.833995 0.998008
vt 0.833995 0.600353
vt 0.865796 0.600353
vt 0.865796 0.998008
vt 0.806819 0.853483
vt 0.771832 0.853483
vt 0.771832 0.600353
vt 0.806819 0.600353
vt 0.828443 0.853483
vt 0.828443 0.600353
vt 0.667329 0.600353
vt 0.702317 0.600353
vt 0.702317 0.853483
vt 0.667329 0.853483
vt 0.723940 0.600353
vt 0.723940 0.853483
vn 0.000000 0.000000 1.000000
vn 0.000000 0.000000 1.000000
vn 0.000000 0.000000 1.000000
vn 0.000000 0.000000 1.000000
vn 0.000000 1.000000 0.000000
vn 0.000000 1.000000 0.000000
vn 0.000000 1.000000 0.000000
vn 0.000000 1.000000 0.000000
vn 0.000000 0.000000 -1.000000
vn 0.000000 0.000000 -1.000000
vn 0.000000 0.000000 -1.000000
vn 0.000000 0.000000 -1.000000
vn 0.000000 -1.000000 0.000000
vn 0.000000 -1.000000 0.000000
vn 0.000000 -1.000000 0.000000
vn 0.000000 -1.000000 0.000000
vn 1.000000 0.000000 0.000000
vn 1.000000 0.000000 0.000000
vn 1.000000 0.000000 0.000000
vn 1.000000 0.000000 0.000000
vn -1.000000 0.000000 0.000000
vn -1.000000 0.000000 0.000000
vn -1.000000 0.000000 0.000000
vn -1.000000 0.000000 0.000000
vn -0.309017 0.000000 -0.951057
vn -0.309017 0.000000 -0.951057
vn -0.309017 0.000000 -0.951057
vn -0.309017 0.000000 -0.951057
vn -1.000000 0.000000 -0.000000
vn -1.000000 0.000000 -0.000000
vn -1.000000 0.000000 -0.000000
vn -1.000000 0.000000 -0.000000
vn -0.309017 0.000000 0.951057
vn -0.309017 0.000000 0.951057
vn -0.309017 0.000000 0.951057
vn -0.309017 0.000000 0.951057
vn 0.809017 0.000000 0.587785
vn 0.809017 0.000000 0.587785
vn 0.809017 0.000000 0.587785
vn 0.809017 0.000000 0.587785
vn 0.809017 0.000000 -0.587785
vn 0.809017 0.000000 -0.587785
vn 0.809017 0.000000 -0.587785
vn 0.809017 0.000000 -0.587785
vn 0.000000 -1.000000 0.000000
vn 0.000000 -1.000000 0.000000
vn 0.000000 -1.000000 0.000000
vn 0.000000 -1.000000 0.000000
vn 0.000000 -1.000000 0.000000
vn 0.000000 -1.000000 0.000000
f 1/27/1 2/28/2 4/29/3 3/30/4
f 3/13/5 4/14/6 6/15/7 5/16/8
f 5/31/9 6/32/10 8/33/11 7/34/12
f 7/17/13 8/18/14 2/19/15 1/20/16
f 2/1/17 8/2/18 6/3/19 4/4/20
f 7/5/21 1/6/22 3/7/23 5/8/24
f 9/35/25 10/36/26 15/37/27 14/38/28
f 10/9/29 11/10/30 16/11/31 15/12/32
f 11/41/33 12/42/34 17/43/35 16/44/36
f 12/42/37 13/45/38 18/46/39 17/43/40
f 13/39/41 9/35/42 14/38/43 18/40/44
f 10/21/45 9/22/46 19/23/47
f 11/25/48 10/21/45 19/23/47
f 12/26/49 11/25/48 19/23/47
f 13/24/50 12/26/49 19/23/47
f 9/22/46 13/24/50 19/23/47
