# This file uses centimeters as units for non-parametric coordinates.

mtllib Instrument1.mtl
v -0.039873 0.673753 0.383720
v -0.028238 0.681658 0.383720
v -0.115421 0.784952 0.383720
v -0.103786 0.792857 0.383720
v -0.115421 0.784952 0.052716
v -0.103786 0.792857 0.052716
v -0.039873 0.673753 0.052716
v -0.028238 0.681658 0.052716
v -0.499079 0.000000 0.500000
v 0.000000 0.000000 0.500000
v -0.499079 1.546533 0.500000
v -0.275225 1.546533 0.500000
v -0.499079 1.546533 -0.500000
v -0.275225 1.546533 -0.500000
v -0.499079 0.000000 -0.500000
v 0.000000 0.000000 -0.500000
v -0.499079 0.624269 0.500000
v -0.499079 0.624269 -0.500000
v 0.000000 0.624269 -0.500000
v 0.000000 0.624269 0.500000
v -0.275225 1.037757 0.500000
v -0.499079 1.037757 0.500000
v -0.499079 1.037757 -0.500000
v -0.275225 1.037757 -0.500000
v -0.274841 1.129686 0.423656
v -0.260775 1.129686 0.423656
v -0.274841 1.511267 0.423656
v -0.260775 1.511267 0.423656
v -0.274841 1.511267 -0.423656
v -0.260775 1.511267 -0.423656
v -0.274841 1.129686 -0.423656
v -0.260775 1.129686 -0.423656
vt 0.375000 0.000000
vt 0.625000 0.000000
vt 0.375000 0.250000
vt 0.625000 0.250000
vt 0.375000 0.500000
vt 0.625000 0.500000
vt 0.375000 0.750000
vt 0.625000 0.750000
vt 0.375000 1.000000
vt 0.625000 1.000000
vt 0.875000 0.000000
vt 0.875000 0.250000
vt 0.125000 0.000000
vt 0.125000 0.250000
vt 0.375000 0.000000
vt 0.625000 0.000000
vt 0.625000 0.141770
vt 0.375000 0.141770
vt 0.375000 0.250000
vt 0.625000 0.250000
vt 0.625000 0.500000
vt 0.375000 0.500000
vt 0.375000 0.608230
vt 0.625000 0.608230
vt 0.625000 0.750000
vt 0.375000 0.750000
vt 0.625000 1.000000
vt 0.375000 1.000000
vt 0.875000 0.000000
vt 0.875000 0.141770
vt 0.125000 0.000000
vt 0.125000 0.141770
vt 0.375000 0.200281
vt 0.125000 0.200281
vt 0.375000 0.549719
vt 0.625000 0.549719
vt 0.875000 0.200281
vt 0.625000 0.200281
vt 0.125000 0.250000
vt 0.875000 0.250000
vt 0.375000 0.000000
vt 0.625000 0.000000
vt 0.625000 0.250000
vt 0.375000 0.250000
vt 0.625000 0.500000
vt 0.375000 0.500000
vt 0.625000 0.750000
vt 0.375000 0.750000
vt 0.625000 1.000000
vt 0.375000 1.000000
vt 0.875000 0.000000
vt 0.875000 0.250000
vt 0.125000 0.000000
vt 0.125000 0.250000
vn 0.000000 0.000000 1.000000
vn 0.000000 0.000000 1.000000
vn 0.000000 0.000000 1.000000
vn 0.000000 0.000000 1.000000
vn -0.561965 0.827161 0.000000
vn -0.561965 0.827161 0.000000
vn -0.561965 0.827161 0.000000
vn -0.561965 0.827161 0.000000
vn 0.000000 0.000000 -1.000000
vn 0.000000 0.000000 -1.000000
vn 0.000000 0.000000 -1.000000
vn 0.000000 0.000000 -1.000000
vn 0.561965 -0.827161 0.000000
vn 0.561965 -0.827161 0.000000
vn 0.561965 -0.827161 0.000000
vn 0.561965 -0.827161 0.000000
vn 0.827161 0.561966 0.000000
vn 0.827161 0.561966 0.000000
vn 0.827161 0.561966 0.000000
vn 0.827161 0.561966 0.000000
vn -0.827161 -0.561966 0.000000
vn -0.827161 -0.561966 0.000000
vn -0.827161 -0.561966 0.000000
vn -0.827161 -0.561966 0.000000
vn 0.000000 0.000000 1.000000
vn 0.000000 0.000000 1.000000
vn 0.000000 0.000000 1.000000
vn 0.000000 0.000000 1.000000
vn 0.000000 1.000000 0.000000
vn 0.000000 1.000000 0.000000
vn 0.000000 1.000000 0.000000
vn 0.000000 1.000000 0.000000
vn 0.000000 0.000000 -1.000000
vn 0.000000 0.000000 -1.000000
vn 0.000000 0.000000 -1.000000
vn 0.000000 0.000000 -1.000000
vn 0.000000 -1.000000 0.000000
vn 0.000000 -1.000000 0.000000
vn 0.000000 -1.000000 0.000000
vn 0.000000 -1.000000 0.000000
vn 1.000000 0.000000 0.000000
vn 1.000000 0.000000 0.000000
vn 0.966584 0.256350 0.000000
vn 0.966584 0.256350 0.000000
vn -1.000000 0.000000 0.000000
vn -1.000000 0.000000 0.000000
vn -1.000000 0.000000 0.000000
vn -1.000000 0.000000 0.000000
vn -1.000000 0.000000 0.000000
vn -1.000000 0.000000 0.000000
vn 0.000000 0.000000 -1.000000
vn 0.000000 0.000000 -1.000000
vn 0.958241 0.285962 0.000000
vn 0.958241 0.285962 0.000000
vn 0.000000 0.000000 1.000000
vn 0.000000 0.000000 1.000000
vn 0.000000 0.000000 1.000000
vn 0.000000 0.000000 1.000000
vn -1.000000 0.000000 0.000000
vn -1.000000 0.000000 0.000000
vn 0.000000 0.000000 -1.000000
vn 0.000000 0.000000 -1.000000
vn 1.000000 0.000000 0.000000
vn 1.000000 0.000000 0.000000
vn 0.000000 0.000000 1.000000
vn 0.000000 0.000000 1.000000
vn 0.000000 0.000000 1.000000
vn 0.000000 0.000000 1.000000
vn 0.000000 1.000000 0.000000
vn 0.000000 1.000000 0.000000
vn 0.000000 1.000000 0.000000
vn 0.000000 1.000000 0.000000
vn 0.000000 0.000000 -1.000000
vn 0.000000 0.000000 -1.000000
vn 0.000000 0.000000 -1.000000
vn 0.000000 0.000000 -1.000000
vn 0.000000 -1.000000 0.000000
vn 0.000000 -1.000000 0.000000
vn 0.000000 -1.000000 0.000000
vn 0.000000 -1.000000 0.000000
vn 1.000000 0.000000 0.000000
vn 1.000000 0.000000 0.000000
vn 1.000000 0.000000 0.000000
vn 1.000000 0.000000 0.000000
vn -1.000000 0.000000 0.000000
vn -1.000000 0.000000 0.000000
vn -1.000000 0.000000 0.000000
vn -1.000000 0.000000 0.000000
s off
usemtl initialShadingGroup
f 1/1/1 2/2/2 4/4/3 3/3/4
f 3/3/5 4/4/6 6/6/7 5/5/8
f 5/5/9 6/6/10 8/8/11 7/7/12
f 7/7/13 8/8/14 2/10/15 1/9/16
f 2/2/17 8/11/18 6/12/19 4/4/20
f 7/13/21 1/1/22 3/3/23 5/14/24
s 1
f 9/15/25 10/16/26 20/17/27 17/18/28
s off
f 11/19/29 12/20/30 14/21/31 13/22/32
s 2
f 18/23/33 19/24/34 16/25/35 15/26/36
s off
f 15/26/37 16/25/38 10/27/39 9/28/40
s 3
f 10/16/41 16/29/42 19/30/43 20/17/44
s 4
f 15/31/45 9/15/46 17/18/47 18/32/48
f 18/32/48 17/18/47 22/33/49 23/34/50
s 2
f 23/35/51 24/36/52 19/24/34 18/23/33
s 3
f 20/17/44 19/30/43 24/37/53 21/38/54
s 1
f 17/18/28 20/17/27 21/38/55 22/33/56
f 22/33/56 21/38/55 12/20/57 11/19/58
s 4
f 23/34/50 22/33/49 11/19/59 13/39/60
s 2
f 13/22/61 14/21/62 24/36/52 23/35/51
s 3
f 21/38/54 24/37/53 14/40/63 12/20/64
s off
f 25/41/65 26/42/66 28/43/67 27/44/68
f 27/44/69 28/43/70 30/45/71 29/46/72
f 29/46/73 30/45/74 32/47/75 31/48/76
f 31/48/77 32/47/78 26/49/79 25/50/80
f 26/42/81 32/51/82 30/52/83 28/43/84
f 31/53/85 25/41/86 27/44/87 29/54/88
